<?xml version="1.0" encoding="UTF-8"?>
<svg id="Layer_1" xmlns="http://www.w3.org/2000/svg" xmlns:xlink="http://www.w3.org/1999/xlink" version="1.1" viewBox="0 0 64 64" aria-hidden="true">
  <!-- Generator: Adobe Illustrator 29.2.1, SVG Export Plug-In . SVG Version: 2.1.0 Build 116)  -->
  <defs>
    <style>
      .st0 {
        fill: #00000;
      }
    </style>
  </defs>
  <path class="st0" d="M32,0C14.4,0,0,14.4,0,32s14.4,32,32,32,32-14.4,32-32S49.6,0,32,0ZM53.8,40c0,1-.6,1.6-1.6,1.6h-1.6c-1,0-1.6-.6-1.6-1.6v-10.9l-12.2,12.2h-9l-12.2-12.2v10.9c0,1-.6,1.6-1.6,1.6h-1.6c-1,0-1.6-.6-1.6-1.6v-17c0-1,.6-1.6,1.6-1.6h.6c.6,0,1.6,1,1.6,1l17.6,17.6,17.6-17.6c.3-.3,1-1,1.6-1h.6c1,0,1.6.6,1.6,1.6v17Z"/>
</svg>