<?xml version="1.0" encoding="UTF-8"?>
<svg id="Layer_1" xmlns="http://www.w3.org/2000/svg" xmlns:xlink="http://www.w3.org/1999/xlink" version="1.1" viewBox="0 0 64 64">
  <!-- Generator: Adobe Illustrator 29.2.1, SVG Export Plug-In . SVG Version: 2.1.0 Build 116)  -->
  <path d="M32,3.3c15.7,0,28.7,12.7,28.7,28.7s-12.7,28.7-28.7,28.7S3.3,47.7,3.3,32,16.3,3.3,32,3.3M32,0C14.4,0,0,14.4,0,32s14.4,32,32,32,32-14.4,32-32S49.6,0,32,0h0Z"/>
  <path d="M52.2,21.4h-.6c-.6,0-1.3.6-1.6,1l-17.6,17.6L14.7,22.4s-1-1-1.6-1h-.6c-1,0-1.6.6-1.6,1.6v17c0,1,.6,1.6,1.6,1.6h1.6c1,0,1.6-.6,1.6-1.6v-10.9l12.2,12.2h9l12.2-12.2v10.9c0,1,.6,1.6,1.6,1.6h1.6c1,0,1.6-.6,1.6-1.6v-17c0-1-.6-1.6-1.6-1.6h0Z"/>
</svg>