<?xml version="1.0" encoding="UTF-8"?>
<svg id="penn-libraries-logo" xmlns="http://www.w3.org/2000/svg" viewBox="0 0 569.038 121.12">
  <defs>
    <style>
      .cls-1 {
        fill: #900;
      }

      .cls-2 {
        fill: #fff;
      }

      .cls-3 {
        fill: #011f5b;
      }
    </style>
  </defs>
  <g id="shield">
    <path class="cls-2" d="M97.49,3.835H0v48.591c-.07,21.159,11.66,36.478,21.504,45.605,10.831,10.045,22.768,15.835,26.754,16.702l.49.101.484-.101c3.985-.867,15.923-6.657,26.753-16.702,9.844-9.127,21.567-24.446,21.505-45.605V3.835"/>
    <path class="cls-1" d="M91.489,24.178h0c.144.113.289.226.396.383.113.164.164.352.164.566,0,.201-.051.39-.164.553-.107.158-.252.27-.396.384-.22.17-.427.339-.427.622v1.729h-20.443v-1.729c0-.283-.207-.452-.433-.622-.145-.114-.289-.226-.396-.384-.107-.163-.164-.352-.157-.559-.007-.208.05-.396.157-.56.107-.157.251-.27.396-.383.226-.17.433-.34.433-.623v-5.644c0-.283-.207-.447-.433-.623-.145-.106-.289-.226-.396-.377-.107-.163-.164-.358-.157-.566-.007-.201.05-.389.157-.559.107-.151.257-.277.396-.377.226-.176.433-.34.433-.623v-1.779h.258c1.194,0,2.244-.031,2.973-.345.296-.119.573-.296.868-.478.622-.402,1.332-.842,2.395-.842.855,0,1.647.32,2.345.603.496.195.961.384,1.313.384h.138c.347,0,.811-.189,1.314-.384.698-.283,1.49-.603,2.339-.603,1.062,0,1.773.44,2.401.842.289.182.566.359.868.478.729.314,1.772.345,2.967.345h.264v1.779c0,.283.207.447.427.623.138.1.289.226.396.377.113.17.164.358.164.566,0,.201-.051.396-.164.559-.107.151-.252.271-.396.377-.22.176-.427.34-.427.623v5.644c0,.283.207.453.427.623M66.426,27.132c-1.584,2.527-4.632,3.149-4.758,3.175-.603.1-1.22.157-1.836.157-3.186,0-6.135-1.389-9.12-2.929-.334-.176-.711-.378-1.107-.597-1.911-1.044-4.57-2.502-6.82-2.502-.66,0-1.282.125-1.836.415l-.094.044-.006.106c-.013.296-.07.579-.164.837-.365.955-1.533,1.98-2.106,2.388-1.307.937-2.923,1.899-4.934,1.899-.296,0-.572-.038-.824-.12-.364-.126-.672-.346-.892-.635-.113-.138-.208-.308-.277-.478-.062-.138-.094-.276-.119-.446l-.013-.119-.113-.038c-.779-.233-1.245-.736-1.245-1.351,0-.472.346-.881.679-1.277.522-.61.968-1.144.233-1.842-.063-.056-.145-.119-.22-.175-.107-.082-.214-.151-.302-.252-.641-.685-.264-2.118-.038-2.973l.025-.088c.246-.943.623-1.905,1.157-2.961.717-1.427,1.584-3.036,2.804-4.054.025-.019.05-.026.081-.026.032.007.063.026.082.05.019.039.151.246.346.56l.201.339.126-.377c.346-1.012.899-1.659,1.666-1.942.817-.302,1.577.119,1.955.396l.163.12.1-.17c.246-.396.698-.88,1.446-.912.83-.037,1.503.528,1.83.868l.119.119.132-.107c.371-.308,1.333-1.012,2.301-.88.918.126,1.27.924,1.376,1.257l.063.208.195-.094c.434-.214,1.27-.497,2.062.006.509.32.566.867.528,1.27l-.025.238.239-.044c.597-.094,1.69-.163,2.338.497.509.522.541,1.201.478,1.672l-.025.233.232-.025c.522-.063,1.22-.013,1.597.572.257.396.157.955.075,1.257l-.05.176.182.05c.302.076.837.264.993.698.12.321.082.861-.1,1.484l-.05.156.157.063c.264.114.742.372.999.88.258.504.245,1.126-.031,1.861l-.044.113.094.088c.679.604,1.364,1.157,2.037,1.641,1.358.993,3.482,1.515,4.922.327.547-.446.786-1.264.603-2.031-.163-.678-.616-1.15-1.232-1.288-1.093-.239-1.955.798-2.659,1.842-.018.031-.057.05-.1.05-.038-.006-.076-.031-.088-.069-.648-1.546-.679-2.823-.101-3.803.503-.836,1.452-1.427,2.615-1.61l.157-.024v-.164c-.019-1.823.415-3.149,1.301-3.954.541-.49,1.528-1.025,3.181-.792.032,0,.063.025.082.05.012.026.019.063.006.094-1.213,2.936-.918,4.03-.257,6.437.063.208.119.434.182.661.61,2.281.427,4.23-.554,5.795M27.309,24.178h0c.144.113.289.226.396.383.106.164.163.352.163.566,0,.201-.057.39-.163.553-.107.158-.252.27-.396.384-.22.17-.434.339-.434.622v1.729H6.433v-1.729c0-.283-.208-.452-.428-.622-.144-.114-.289-.226-.396-.384-.113-.163-.163-.352-.163-.559s.05-.396.163-.56c.107-.157.252-.27.396-.383.22-.17.428-.34.428-.623v-5.644c0-.283-.208-.447-.428-.623-.144-.106-.289-.226-.396-.377-.113-.163-.163-.358-.163-.566,0-.201.05-.389.163-.559.107-.151.258-.277.396-.377.22-.176.428-.34.428-.623v-1.779h.258c1.2,0,2.243-.031,2.979-.345.296-.119.572-.296.861-.478.629-.402,1.339-.842,2.401-.842.849,0,1.641.32,2.345.603.497.195.962.384,1.314.384h.132c.352,0,.817-.189,1.32-.384.692-.283,1.484-.603,2.338-.603,1.063,0,1.773.44,2.396.842.295.182.571.359.867.478.729.314,1.779.345,2.973.345h.258v1.779c0,.283.214.447.434.623.138.1.289.226.396.377.106.17.163.358.163.566,0,.201-.057.396-.163.559-.107.151-.252.271-.396.377-.22.176-.434.34-.434.623v5.644c0,.283.214.453.434.623M2.466,6.401s.132,28.237-.006,28.105h92.574V6.401H2.466Z"/>
    <path class="cls-3" d="M34.357,22.963c.32,0,.635.088.937.34.1.075.194.163.276.245.214.201.201.54-.031.723-.227.189-.491.377-.654.484-.378.258-1.025.729-1.471.364-.226-.195.22-.496.025-1.269-.151-.616.446-.887.918-.887"/>
    <path class="cls-3" d="M34.505,13.853c-1.03.968-1.798,2.414-2.445,3.702-.521,1.025-.893,1.968-1.131,2.879l-.026.094c-.175.667-.54,2.069-.056,2.59.069.07.157.133.245.201.088.07.176.126.264.214,1.006.956.308,1.785-.208,2.395-.295.352-.584.685-.584,1.006,0,.704.861.962,1.125,1.018.126.026.22.139.226.264.02.208.038.359.107.522.057.145.132.27.221.384.182.226.421.396.71.496.207.076.44.114.691.114,1.898,0,3.438-.931,4.702-1.836.748-.535,1.691-1.49,1.962-2.2.068-.195.112-.396.131-.61l-1.326-.227c-.012,0-.019-.006-.031-.006-.139-.043-.233-.144-.258-.283-.038-.263.195-.421.666-.741.138-.095.283-.189.415-.296.698-.515,1.263-.917,1.578-1.144-.365-.414-.679-.886-.937-1.282-.201-.295-.371-.56-.522-.729-.653-.71-1.81-1.125-2.753-.547-.377.239-.71.534-1.062.842-.283.251-.578.516-.899.742-.126.088-.302.063-.396-.057-.101-.113-.094-.289.019-.396.044-.043.094-.088.151-.138.427-.408,1.433-1.345,1.433-2.018,0-1.553-1.483-4.098-2.012-4.953M42.809,24.017c2.307,0,4.929,1.44,6.984,2.565.396.22.773.421,1.106.591,3.514,1.817,6.972,3.388,10.693,2.734.025-.006,3.011-.615,4.494-2.992.912-1.464,1.082-3.307.503-5.475-.063-.226-.125-.453-.182-.66-.616-2.25-.968-3.527.126-6.324-1.276-.081-2.043.346-2.477.73-.83.754-1.219,2.067-1.157,3.909,0,.158-.113.289-.264.302-1.144.12-2.105.654-2.571,1.439-.452.768-.477,1.748-.075,2.936.566-.773,1.528-1.816,2.753-1.546.767.17,1.345.76,1.54,1.584.227.924-.075,1.905-.735,2.445-1.61,1.32-3.942.761-5.419-.314-1.747-1.27-3.482-2.885-5.305-4.935-.314-.358-.629-.723-.937-1.081-1.15-1.326-2.338-2.703-3.753-3.797-2.212-1.709-4.827-1.986-6.637-1.923-1.232.05-3.703.39-5.363,1.395.516,1.056.969,2.27.969,3.206,0,.17-.032.333-.088.497,1.2-.704,2.64-.201,3.444.685.183.195.365.478.579.805.314.471.672,1.012,1.1,1.42.063.063.094.151.088.239-.007.088-.051.17-.126.214-.006.006-.767.541-1.842,1.339-.145.113-.301.22-.44.308-.025.019-.05.038-.075.056l.949.157c.654-.357,1.364-.509,2.118-.509M59.833,30.649c-3.193,0-6.179-1.389-9.203-2.954-.339-.176-.716-.378-1.119-.597-2.432-1.333-6.091-3.338-8.48-2.081-.012.308-.069.603-.176.88-.377,1-1.584,2.055-2.168,2.477-1.333.955-2.974,1.936-5.042,1.936-.314,0-.616-.044-.88-.132-.396-.138-.735-.378-.98-.698-.12-.151-.227-.327-.302-.522-.069-.163-.107-.32-.132-.49-.855-.258-1.371-.83-1.371-1.534,0-.535.365-.968.724-1.389.578-.686.829-1.037.245-1.584-.057-.057-.133-.113-.208-.17-.107-.081-.22-.163-.321-.276-.71-.761-.314-2.251-.081-3.143l.025-.089c.251-.949.635-1.929,1.169-2.992.723-1.445,1.603-3.074,2.848-4.111.063-.056.15-.081.232-.069.082.013.158.063.201.126.044.069.541.829,1.063,1.835,2.162-1.295,5.242-1.439,5.601-1.452,1.898-.075,4.664.227,7.015,2.043,1.465,1.132,2.672,2.527,3.84,3.879.302.352.617.716.931,1.068,1.798,2.024,3.501,3.615,5.211,4.853,1.301.949,3.332,1.458,4.696.339.496-.408.716-1.15.547-1.847-.151-.617-.547-1.031-1.1-1.157-.981-.214-1.792.773-2.458,1.76-.063.094-.17.145-.277.132-.107-.006-.195-.082-.239-.182-.672-1.59-.698-2.93-.082-3.967.522-.88,1.534-1.502,2.741-1.691-.019-1.886.434-3.262,1.358-4.098.572-.509,1.603-1.075,3.332-.843.088.013.17.07.214.145.05.082.056.176.018.258-1.194,2.872-.899,3.947-.251,6.311.063.207.119.44.189.672.622,2.326.427,4.325-.579,5.935-1.628,2.596-4.752,3.231-4.884,3.256-.629.107-1.251.163-1.867.163"/>
    <path class="cls-3" d="M32.518,28.617c-.276,0-.56-.019-.849-.05-.163-.025-.276-.163-.257-.333.019-.158.163-.27.327-.258,1.339.163,3.294-.012,4.997-1.773.113-.113.302-.113.415-.006.119.12.119.302.006.421-1.276,1.32-2.873,1.999-4.639,1.999"/>
    <path class="cls-3" d="M56.115,24.204c-.038,0-.075-.006-.107-.025-.144-.063-.207-.22-.144-.365.308-.703.352-1.288.126-1.735-.302-.603-1.013-.779-1.019-.779-.075-.019-.145-.069-.176-.132-.037-.075-.044-.157-.019-.233.101-.27.333-1.074.189-1.483-.126-.352-.78-.49-1-.516-.081-.006-.163-.062-.207-.131-.044-.076-.051-.17-.013-.246.088-.226.277-.867.051-1.219-.428-.666-1.572-.34-1.584-.34-.101.026-.208,0-.277-.068-.07-.076-.094-.189-.063-.284.006-.006.327-1.037-.314-1.697-.749-.767-2.358-.314-2.377-.308-.094.025-.201,0-.27-.075s-.094-.182-.063-.277c.013-.038.277-.893-.301-1.251-.918-.578-1.962.158-1.974.17-.076.056-.183.069-.271.025-.087-.037-.15-.126-.157-.22-.006-.044-.157-1.169-1.144-1.295-1.062-.144-2.194.949-2.206.962-.05.057-.132.088-.207.082-.082-.007-.151-.051-.202-.113-.006-.007-.76-.975-1.703-.931-.912.044-1.27.968-1.27.975-.038.088-.107.151-.201.169-.088.019-.182-.006-.251-.069-.007-.006-.912-.867-1.836-.528-1.169.428-1.496,1.854-1.603,2.32l-.006.018c-.032.145-.183.24-.327.202-.151-.032-.239-.183-.208-.333l.007-.013c.126-.541.502-2.181,1.948-2.709.893-.334,1.717.119,2.131.421.233-.39.73-.962,1.597-1,.905-.044,1.634.579,1.961.925.427-.352,1.427-1.069,2.452-.925.892.12,1.345.83,1.521,1.383.484-.239,1.383-.528,2.244.013.597.384.654,1.025.61,1.452.628-.107,1.791-.176,2.502.547.578.591.597,1.351.534,1.823.503-.063,1.326-.032,1.773.653.283.453.195,1.037.094,1.409.377.087.943.308,1.125.811.176.49.012,1.206-.1,1.596.314.126.817.409,1.1.968.302.604.263,1.345-.114,2.213-.043.101-.144.163-.251.163"/>
    <path class="cls-3" d="M54.743,27.998h-.031c-.151-.019-.258-.157-.24-.308.126-1.049-.496-1.245-1.037-1.408-.144-.05-.27-.088-.37-.145-.29-.169-.302-.521-.315-.886-.012-.396-.025-.836-.32-1.169-.516-.572-1.528-.201-1.534-.201-.094.037-.195.019-.27-.044-.076-.063-.113-.157-.101-.252.007-.012.163-1.125-.478-1.672-.54-.458-1.571-.346-1.917-.264-.088.019-.176-.006-.245-.063-.063-.05-.1-.138-.094-.226.05-.685-.227-1.282-.755-1.615-.446-.296-.987-.334-1.408-.107-1.156.622-1.609.66-2.816-.189-.377-.27-.76-.358-1.125-.264-.459.113-.886.528-1.201,1.157-.063.138-.226.195-.365.125-.138-.069-.188-.226-.125-.37.384-.774.936-1.289,1.559-1.446.521-.138,1.062-.013,1.571.346,1.019.722,1.251.691,2.238.157.604-.321,1.358-.277,1.974.119.597.396.962,1.043,1.006,1.786.503-.063,1.44-.089,2.062.439.59.503.691,1.289.691,1.76.459-.088,1.232-.113,1.741.453.428.484.453,1.081.466,1.521,0,.151.006.371.043.434.051.025.151.057.252.088.516.157,1.603.496,1.415,2.005-.013.132-.133.239-.271.239"/>
    <path class="cls-3" d="M27.473,25.132c.006.119-.025.233-.094.333-.069.101-.189.195-.314.289-.258.208-.573.459-.573.931v1.257H6.823v-1.257c0-.472-.32-.723-.578-.931-.126-.094-.245-.188-.314-.289-.07-.1-.101-.214-.094-.333v-.019c-.007-.125.024-.232.094-.333.069-.101.188-.195.314-.295.258-.202.578-.453.578-.925v-5.651c0-.471-.32-.723-.578-.924-.126-.1-.245-.188-.314-.295-.07-.101-.101-.208-.094-.333v-.019c-.007-.119.024-.233.094-.327.069-.107.188-.201.314-.295.258-.202.578-.459.578-.931v-1.307h.038c.516,0,1.012-.007,1.484-.05v12.999h7.16c.131.509.597.886,1.156.886.553,0,1.018-.377,1.157-.886h7.153v-12.993c.472.037.968.044,1.477.044h.044v1.307c0,.472.315.729.573.931.125.094.245.188.314.295.069.094.1.208.094.327v.019c.006.125-.025.232-.094.333-.069.107-.189.195-.314.295-.258.201-.573.453-.573.924v5.651c0,.472.315.723.573.925.125.1.245.194.314.295s.1.208.094.333c0,0,0,.019,0,.019ZM9.853,13.1c.334-.144.635-.333.931-.515.628-.402,1.219-.767,2.149-.767.755,0,1.509.296,2.163.56.465.188.873.352,1.251.402v11.365c-.026,0-.05.006-.07.006-.546.044-1.326.296-2.212.579-.289.094-.585.188-.874.276-.861.258-1.747.258-2.615.264-.566,0-1.093.007-1.59.082v-12c.308-.057.597-.138.867-.252M18.214,12.378c.66-.264,1.408-.56,2.162-.56.93,0,1.527.365,2.15.767.295.182.597.371.93.515.277.114.566.195.874.252v12c-.49-.075-1.025-.082-1.591-.082-.86-.006-1.753-.006-2.614-.264-.289-.088-.585-.182-.874-.276-.886-.283-1.666-.535-2.213-.579-.012,0-.025,0-.031-.006v-11.371c.364-.057.76-.214,1.207-.396M27.423,24.032c-.227-.176-.358-.289-.358-.472v-5.651c0-.182.131-.295.358-.471.145-.114.314-.245.434-.422.131-.194.201-.433.194-.672.007-.232-.063-.465-.194-.66-.12-.176-.289-.308-.434-.427-.227-.176-.358-.283-.358-.472v-1.967h-.447c-1.049,0-2.175-.013-2.898-.328-.289-.112-.559-.289-.842-.464-.647-.415-1.383-.874-2.502-.874-.886,0-1.697.327-2.408.616-.477.195-.93.37-1.244.37h-.138c-.309,0-.767-.175-1.245-.37-.71-.289-1.521-.616-2.408-.616-1.118,0-1.854.459-2.501.874-.283.175-.553.352-.837.464-.729.315-1.854.328-2.903.328h-.447v1.967c0,.189-.132.296-.358.472-.145.119-.315.251-.434.427-.132.195-.201.428-.195.66-.006.239.063.478.195.672.119.177.289.308.434.422.226.176.358.289.358.471v5.651c0,.183-.132.296-.358.472-.145.119-.315.245-.434.421-.132.202-.201.434-.195.666-.006.239.063.472.195.667.119.182.289.308.434.427.226.176.358.289.358.472v1.892l-.012.025h20.844l-.012-.025v-1.892c0-.183.131-.296.358-.472.145-.119.314-.245.434-.427.131-.195.201-.428.194-.667.007-.232-.063-.464-.194-.666-.12-.176-.289-.302-.434-.421"/>
    <path class="cls-3" d="M91.656,25.132c.006.119-.025.233-.094.333-.069.101-.189.195-.314.289-.258.208-.579.459-.579.931v1.257h-19.663v-1.257c0-.472-.32-.723-.578-.931-.126-.094-.245-.188-.314-.289-.07-.1-.101-.214-.094-.333v-.019c-.007-.125.024-.232.094-.333.069-.101.188-.195.314-.295.258-.202.578-.453.578-.925v-5.651c0-.471-.32-.723-.578-.924-.126-.1-.245-.188-.314-.295-.07-.101-.101-.208-.094-.333v-.019c-.007-.119.024-.233.094-.327.069-.107.188-.201.314-.295.258-.202.578-.459.578-.931v-1.307h.038c.516,0,1.012-.007,1.484-.05v12.999h7.16c.131.509.597.886,1.156.886.547,0,1.018-.377,1.15-.886h7.16v-12.993c.472.037.968.044,1.477.044h.038v1.307c0,.472.321.729.579.931.125.094.245.188.314.295.069.094.1.208.094.327v.019c.006.125-.025.232-.094.333-.069.107-.189.195-.314.295-.258.201-.579.453-.579.924v5.651c0,.472.321.723.579.925.125.1.245.194.314.295s.1.208.094.333v.019ZM74.036,13.1c.334-.144.635-.333.931-.515.628-.402,1.219-.767,2.143-.767.761,0,1.509.296,2.169.56.465.188.873.352,1.251.402v11.365c-.026,0-.05.006-.07.006-.546.044-1.326.296-2.212.579-.289.094-.585.188-.88.276-.855.258-1.748.258-2.609.264-.566,0-1.093.007-1.59.082v-12c.308-.057.597-.138.867-.252M82.397,12.378c.66-.264,1.408-.56,2.162-.56.93,0,1.521.365,2.15.767.295.182.597.371.93.515.277.114.566.195.874.252v12c-.49-.075-1.025-.082-1.591-.082-.86-.006-1.753-.006-2.614-.264-.289-.088-.585-.182-.874-.276-.887-.283-1.666-.535-2.213-.579-.012,0-.025,0-.031-.006v-11.371c.364-.057.76-.214,1.207-.396M91.606,24.032c-.233-.176-.358-.289-.358-.472v-5.651c0-.182.125-.295.358-.471.145-.114.314-.245.434-.422.131-.194.201-.433.194-.672.007-.232-.063-.465-.194-.66-.12-.176-.289-.308-.434-.427-.233-.176-.358-.283-.358-.472v-1.967h-.447c-1.049,0-2.175-.013-2.898-.328-.289-.112-.559-.289-.842-.464-.647-.415-1.383-.874-2.502-.874-.886,0-1.697.327-2.408.616-.477.195-.93.37-1.244.37h-.138c-.315,0-.767-.175-1.245-.37-.716-.289-1.521-.616-2.414-.616-1.112,0-1.848.459-2.495.874-.283.175-.553.352-.837.464-.729.315-1.854.328-2.903.328h-.447v1.967c0,.189-.132.296-.358.472-.145.119-.315.251-.434.427-.132.195-.201.428-.195.66-.006.239.063.478.195.672.119.177.289.308.434.422.226.176.358.289.358.471v5.651c0,.183-.132.296-.358.472-.145.119-.315.245-.434.421-.132.202-.201.434-.195.666-.006.239.063.472.195.667.119.182.289.308.434.427.226.176.358.289.358.472v1.892l-.012.025h20.844l-.012-.025v-1.892c0-.183.125-.296.358-.472.145-.119.314-.245.434-.427.131-.195.201-.428.194-.667.007-.232-.063-.464-.194-.666-.12-.176-.289-.302-.434-.421"/>
    <path class="cls-3" d="M89.142,75.37l-40.394-38.96L8.348,75.37c-3.137-6.6-5.224-14.256-5.193-22.931v-17.287h91.186v17.287c.025,8.675-2.062,16.331-5.199,22.931M76.249,79.432c-3.136,3.136-8.228,3.136-11.365,0-3.137-3.138-3.137-8.223,0-11.36s8.229-3.137,11.365,0c3.137,3.137,3.137,8.222,0,11.36M40.714,53.822c0-4.432,3.596-8.028,8.034-8.028s8.027,3.596,8.027,8.028-3.589,8.039-8.027,8.039-8.034-3.601-8.034-8.039M73.842,95.725c-10.844,10.057-22.083,15.124-25.094,15.891-3.011-.767-14.257-5.834-25.1-15.891-.264-.246-.528-.497-.798-.749l25.898-27.489,25.892,27.489c-.264.252-.534.503-.798.749M21.246,79.432c-3.136-3.138-3.136-8.223,0-11.36,3.137-3.137,8.223-3.137,11.359,0,3.137,3.137,3.137,8.222,0,11.36-3.136,3.136-8.222,3.136-11.359,0M94.341,33.851H3.155V6.984h91.186s0,26.867,0,26.867ZM95.642,5.683H1.854v46.75c-.063,20.486,11.334,35.365,20.908,44.247,10.441,9.68,22.195,15.445,25.885,16.25l.101.012.094-.012c3.696-.805,15.451-6.57,25.886-16.25,9.574-8.882,20.976-23.761,20.914-44.247,0,0,0-46.75,0-46.75Z"/>
  </g>
  <g id="name">
    <path class="cls-2" d="M107.721,5.683h21.525c7.041,0,12.615,1.559,16.723,4.677,4.106,3.118,6.161,7.142,6.161,12.07,0,4.896-1.794,8.659-5.381,11.291-3.588,2.632-8.734,3.948-15.44,3.948-2.582,0-5.6-.201-9.053-.604v16.527c0,3.562.478,6.014,1.433,7.358.956,1.344,2.708,2.016,5.256,2.016v1.71h-21.224v-1.71c2.548,0,4.3-.704,5.256-2.114.955-1.41,1.433-3.759,1.433-7.048V16.807c0-3.524-.478-5.973-1.433-7.349-.956-1.376-2.708-2.064-5.256-2.064v-1.71h0ZM129.548,7.946h-7.292v26.454c1.978.671,4.409,1.006,7.292,1.006,4.426,0,7.921-1.14,10.486-3.42,2.564-2.28,3.847-5.398,3.847-9.354,0-4.258-1.274-7.771-3.822-10.536-2.548-2.767-6.052-4.149-10.511-4.149h0Z"/>
    <path class="cls-2" d="M180.641,55.322v2.666c-2.213,2.816-4.468,4.828-6.765,6.035-2.297,1.207-5.054,1.811-8.273,1.811-5.7,0-10.403-1.785-14.107-5.356-3.706-3.571-5.558-8.105-5.558-13.604,0-5.532,1.768-10.192,5.306-13.981,3.537-3.789,7.871-5.683,13.001-5.683,4.225,0,7.912,1.425,11.064,4.275,3.151,2.85,4.728,6.253,4.728,10.209v.754h-26.806v.503c0,4.023.611,7.519,1.835,10.486,1.224,2.967,3.009,5.289,5.356,6.965,2.347,1.677,4.794,2.515,7.343,2.515,2.38,0,4.417-.494,6.11-1.483,1.693-.989,3.948-3.026,6.765-6.111h0ZM153.231,40.687h19.866v-.704c0-3.252-.931-5.834-2.791-7.745-1.861-1.911-4.183-2.867-6.966-2.867-2.951,0-5.323,1.006-7.116,3.018-1.794,2.012-2.792,4.778-2.993,8.298Z"/>
    <path class="cls-2" d="M193.611,27.208v7.292c4.257-4.861,8.65-7.292,13.176-7.292,3.521,0,6.454,1.201,8.802,3.602,2.347,2.4,3.521,5.565,3.521,9.493v16.469c0,2.519.419,4.181,1.258,4.986.837.807,2.48,1.209,4.928,1.209v1.71h-19.463v-1.71c2.414,0,4.065-.311,4.954-.933.888-.62,1.333-1.821,1.333-3.601v-19.091c0-2.552-.764-4.583-2.289-6.095s-3.479-2.267-5.859-2.267c-3.42,0-6.873,2.381-10.359,7.142v17.84c0,3.024.39,4.948,1.171,5.771s2.42,1.234,4.914,1.234v1.71h-19.212v-1.71c2.782,0,4.492-.446,5.13-1.337.637-.892.956-2.783.956-5.675v-20.583c0-2.186-.387-3.624-1.157-4.313-.771-.689-2.414-1.034-4.929-1.034v-1.71l11.366-1.106h1.761-.002Z"/>
    <path class="cls-2" d="M237.902,27.208v7.292c4.257-4.861,8.65-7.292,13.176-7.292,3.521,0,6.454,1.201,8.802,3.602,2.347,2.4,3.521,5.565,3.521,9.493v16.469c0,2.519.419,4.181,1.258,4.986.837.807,2.48,1.209,4.928,1.209v1.71h-19.463v-1.71c2.414,0,4.065-.311,4.954-.933.888-.62,1.333-1.821,1.333-3.601v-19.091c0-2.552-.764-4.583-2.289-6.095s-3.479-2.267-5.859-2.267c-3.42,0-6.873,2.381-10.359,7.142v17.84c0,3.024.39,4.948,1.171,5.771s2.42,1.234,4.914,1.234v1.71h-19.212v-1.71c2.782,0,4.492-.446,5.13-1.337.637-.892.956-2.783.956-5.675v-20.583c0-2.186-.387-3.624-1.157-4.313-.771-.689-2.414-1.034-4.929-1.034v-1.71l11.366-1.106h1.761-.002Z"/>
    <path class="cls-2" d="M322.153,51.802h1.761l-3.621,12.875h-42.749v-1.71c2.414,0,4.132-.755,5.155-2.265,1.022-1.51,1.534-4.044,1.534-7.602V15.951c0-3.188-.479-5.411-1.434-6.67-.956-1.258-2.708-1.888-5.256-1.888v-1.71h21.123v1.71c-2.348,0-4.032.721-5.055,2.163-1.022,1.442-1.533,3.822-1.533,7.142v39.43c0,2.18.46,3.671,1.383,4.476.922.805,2.69,1.207,5.306,1.207h11.718c3.621,0,6.152-.628,7.595-1.886,1.441-1.257,2.799-3.964,4.073-8.122h0Z"/>
    <path class="cls-2" d="M336.24,27.208h1.761v30.722c0,2.015.435,3.358,1.307,4.029.872.672,2.465,1.008,4.778,1.008v1.71h-19.966v-1.71c2.916,0,4.794-.328,5.633-.984.837-.655,1.257-2.009,1.257-4.061v-22.449c0-2.219-.386-3.683-1.157-4.389-.771-.706-2.683-1.059-5.732-1.059v-1.71l12.12-1.106h0ZM334.63,8.349c1.24,0,2.288.428,3.144,1.282.854.855,1.282,1.903,1.282,3.144s-.437,2.306-1.308,3.193c-.872.889-1.911,1.333-3.118,1.333-1.241,0-2.313-.444-3.219-1.333-.905-.888-1.358-1.953-1.358-3.193s.444-2.288,1.333-3.144c.889-.854,1.97-1.282,3.244-1.282Z"/>
    <path class="cls-2" d="M352.921,0h1.761v32.64c1.545-1.676,3.417-3,5.617-3.973,2.2-.972,4.425-1.458,6.676-1.458,4.735,0,8.739,1.719,12.015,5.155,3.275,3.438,4.912,7.653,4.912,12.649,0,5.868-2.208,10.679-6.622,14.434-4.415,3.755-10.501,5.633-18.257,5.633-3.022,0-6.799-.369-11.332-1.106V9.254c0-2.85-.36-4.61-1.081-5.281-.721-.67-2.523-1.006-5.406-1.006v-1.71L352.922,0h0ZM354.682,35.306v20.821c0,2.716.462,4.577,1.386,5.583.925,1.006,2.529,1.509,4.814,1.509,4.738,0,8.485-1.525,11.241-4.577,2.756-3.051,4.134-7.326,4.134-12.825,0-4.593-1.193-8.349-3.579-11.266s-5.242-4.375-8.569-4.375c-3.495,0-6.638,1.71-9.427,5.13h0Z"/>
    <path class="cls-2" d="M397.409,27.208v7.896c3.353-2.917,5.96-4.962,7.821-6.136,1.86-1.173,3.411-1.76,4.651-1.76,2.314,0,4.543.956,6.689,2.867l-2.766,6.488c-3.891-2.146-6.773-3.219-8.65-3.219-2.08,0-4.661,1.476-7.746,4.426v20.057c0,2.017.419,3.377,1.258,4.083.838.705,2.447,1.058,4.828,1.058v1.71h-19.262v-1.71c2.547,0,4.216-.403,5.004-1.21.787-.808,1.182-2.742,1.182-5.802v-19.927c0-2.521-.428-4.152-1.282-4.893-.855-.74-2.942-1.11-6.262-1.11v-1.71l12.774-1.106h1.76v-.002Z"/>
    <path class="cls-2" d="M427.501,65.833c-2.851,0-5.298-.947-7.343-2.841-2.046-1.895-3.067-4.183-3.067-6.866,0-2.548.88-4.652,2.64-6.312,1.761-1.66,5.339-3.244,10.737-4.753,3.387-.938,5.666-1.743,6.84-2.414v-2.716c0-2.648-.737-4.786-2.213-6.412s-3.453-2.439-5.934-2.439c-2.247,0-4.242.704-5.985,2.112-1.744,1.408-2.968,3.319-3.671,5.733l-1.861-.503c.737-3.386,2.339-6.102,4.803-8.147,2.465-2.045,5.356-3.068,8.676-3.068,3.923,0,7.1,1.182,9.53,3.545,2.431,2.364,3.646,5.642,3.646,9.833v15.641c0,2.213.143,3.714.428,4.501.284.789.829,1.182,1.634,1.182.536,0,.973-.226,1.309-.679.334-.453.72-1.4,1.156-2.842h1.76c-.168,2.28-.88,4.091-2.137,5.432-1.258,1.341-2.909,2.012-4.954,2.012-2.984,0-5.047-1.727-6.187-5.18-1.811,1.979-3.42,3.336-4.828,4.074-1.408.737-3.067,1.106-4.979,1.106h0ZM437.308,57.284v-12.372c-1.039.436-2.548.989-4.525,1.66-3.655,1.241-5.994,2.473-7.017,3.696-1.022,1.225-1.534,2.875-1.534,4.954,0,1.811.545,3.378,1.635,4.702,1.09,1.326,2.389,1.987,3.898,1.987,1.374,0,2.816-.443,4.324-1.333,1.51-.888,2.582-1.987,3.219-3.294h0Z"/>
    <path class="cls-2" d="M464.305,27.208v7.896c3.353-2.917,5.96-4.962,7.821-6.136,1.86-1.173,3.411-1.76,4.651-1.76,2.314,0,4.543.956,6.689,2.867l-2.766,6.488c-3.891-2.146-6.773-3.219-8.65-3.219-2.08,0-4.661,1.476-7.746,4.426v20.057c0,2.017.419,3.377,1.258,4.083.838.705,2.447,1.058,4.828,1.058v1.71h-19.262v-1.71c2.547,0,4.216-.403,5.004-1.21.787-.808,1.182-2.742,1.182-5.802v-19.927c0-2.521-.428-4.152-1.282-4.893-.855-.74-2.942-1.11-6.262-1.11v-1.71l12.774-1.106h1.76v-.002Z"/>
    <path class="cls-2" d="M497.587,27.208h1.761v30.722c0,2.015.435,3.358,1.307,4.029.872.672,2.465,1.008,4.778,1.008v1.71h-19.966v-1.71c2.916,0,4.794-.328,5.633-.984.837-.655,1.257-2.009,1.257-4.061v-22.449c0-2.219-.386-3.683-1.157-4.389-.771-.706-2.683-1.059-5.732-1.059v-1.71l12.12-1.106h0ZM495.978,8.349c1.24,0,2.288.428,3.144,1.282.854.855,1.282,1.903,1.282,3.144s-.437,2.306-1.308,3.193c-.872.889-1.911,1.333-3.118,1.333-1.241,0-2.313-.444-3.219-1.333-.905-.888-1.358-1.953-1.358-3.193s.444-2.288,1.333-3.144c.889-.854,1.97-1.282,3.244-1.282Z"/>
    <path class="cls-2" d="M539.84,55.322v2.666c-2.213,2.816-4.468,4.828-6.765,6.035-2.297,1.207-5.054,1.811-8.272,1.811-5.701,0-10.403-1.785-14.107-5.356-3.705-3.571-5.558-8.105-5.558-13.604,0-5.532,1.769-10.192,5.306-13.981,3.537-3.789,7.871-5.683,13.001-5.683,4.225,0,7.912,1.425,11.064,4.275,3.151,2.85,4.728,6.253,4.728,10.209v.754h-26.807v.503c0,4.023.612,7.519,1.836,10.486s3.009,5.289,5.356,6.965c2.347,1.677,4.794,2.515,7.343,2.515,2.38,0,4.417-.494,6.11-1.483,1.693-.989,3.948-3.026,6.765-6.111h0ZM512.43,40.687h19.866v-.704c0-3.252-.931-5.834-2.791-7.745-1.861-1.911-4.184-2.867-6.966-2.867-2.951,0-5.323,1.006-7.116,3.018-1.794,2.012-2.792,4.778-2.993,8.298Z"/>
    <path class="cls-2" d="M567.127,27.208v11.215h-2.062c-.336-2.816-1.342-5.055-3.018-6.714-1.677-1.66-3.705-2.49-6.086-2.49-1.811,0-3.269.453-4.375,1.358s-1.66,2.112-1.66,3.621c0,1.476.512,2.775,1.534,3.897,1.022,1.124,3.244,2.473,6.664,4.049,4.426,2.012,7.351,3.94,8.776,5.784s2.137,4.057,2.137,6.639c0,3.051-1.14,5.692-3.42,7.922-2.28,2.229-4.979,3.344-8.097,3.344-1.609,0-3.739-.587-6.388-1.76-1.441-.637-2.397-.956-2.866-.956-.638,0-1.174.235-1.609.704-.437.47-.688,1.057-.755,1.761h-1.76v-12.423h1.76c.637,3.268,2.045,5.861,4.225,7.782s4.678,2.88,7.494,2.88c1.811,0,3.327-.604,4.552-1.812,1.224-1.209,1.835-2.704,1.835-4.484,0-1.712-.563-3.198-1.691-4.458-1.128-1.259-3.567-2.712-7.32-4.361-4.222-1.85-7.003-3.58-8.342-5.191-1.339-1.61-2.009-3.556-2.009-5.838,0-2.852,1.098-5.309,3.294-7.373,2.196-2.063,4.803-3.095,7.82-3.095,1.408,0,2.934.335,4.577,1.006,1.173.47,2.129.704,2.866.704.973,0,1.693-.57,2.163-1.71h1.761,0Z"/>
  </g>
  <rect id="divider" class="cls-2" x="107.718" y="76.426" width="460.453" height="1.609"/>
  <g id="penn">
    <path class="cls-2" d="M113.755,103.579c0,4.625,1.253,8.155,6.17,8.155,4.529,0,6.908-3.034,6.908-8.314v-9.191c0-.681-.127-1.247-.197-1.775-.166-1.189-1.285-1.653-2.844-1.813v-.858h7.799v.858c-1.584.16-2.678.624-2.843,1.813-.064.528-.185,1.094-.185,1.775v9.312c0,7.105-4.536,9.745-8.797,9.745-7.035,0-9.211-3.562-9.211-9.541v-9.841c0-3.072.134-2.907-2.843-3.263v-.858h8.886v.858c-2.977.356-2.843.191-2.843,3.263,0,0,0,9.675,0,9.675Z"/>
    <path class="cls-2" d="M150.28,112.891c-4.052-4.789-8.244-9.808-12.41-14.706v11.271c0,.535.108.961.159,1.369.127.921.992,1.284,2.678,1.405v.661h-6.24v-.661c1.221-.121,2.054-.484,2.188-1.405.044-.408.152-.834.152-1.369v-12.003c-.718-.921-1.501-1.729-2.957-1.729v-.668h4.637c3.797,4.617,7.741,9.306,11.545,13.911h.051v-10.464c0-.547-.102-.979-.153-1.38-.134-.917-.999-1.272-2.678-1.399v-.668h6.246v.668c-1.208.127-2.073.482-2.194,1.399-.051.401-.153.833-.153,1.38v14.388h-.871,0Z"/>
    <path class="cls-2" d="M162.862,109.711c0,2.366-.108,2.239,2.188,2.519v.661h-6.851v-.661c2.29-.28,2.189-.153,2.189-2.519v-11.476c0-2.359.101-2.238-2.189-2.511v-.668h6.851v.668c-2.296.273-2.188.152-2.188,2.511v11.476Z"/>
    <path class="cls-2" d="M176.155,95.722c-1.399,0-2.417.401-1.584,2.85.999,3.008,2.481,7.384,3.798,11.265,1.635-3.906,3.193-7.824,4.77-11.717.637-1.609-.031-2.398-1.762-2.398v-.661h5.503v.661c-.738,0-1.578.248-2.112,1.533-2.144,5.223-4.3,10.413-6.444,15.635h-1.304c-1.552-4.401-3.282-9.318-4.84-13.644-.935-2.735-1.731-3.524-2.952-3.524v-.661h6.927v.661h0Z"/>
    <path class="cls-2" d="M190.806,112.227c2.296-.28,2.194-.146,2.194-2.52v-11.467c0-2.361.102-2.246-2.194-2.52v-.661h11.393v4.103h-.662c-.261-1.896-.77-3.283-2.602-3.283h-3.466v7.278h2.143c1.603,0,2.29-.637,2.341-2.214h.662v5.426h-.662c-.051-1.496-.636-2.386-2.341-2.386h-2.143v5.75c0,2.17.998,2.348,3.288,2.348,3.702,0,3.518-1.043,4.688-3.773h.662l-.758,4.58h-12.543v-.661Z"/>
    <path class="cls-2" d="M213.151,104.179h2.111c2.22,0,3.238-1.673,3.238-4.555,0-2.786-1.533-3.746-3.384-3.746h-1.965v8.301ZM208.488,95.058h7.41c2.57,0,5.153,1.354,5.153,4.344,0,2.614-1.603,4.421-3.569,5.184l2.494,3.797c1.272,1.864,2.697,3.646,3.6,4.18v.331h-2.627c-1.501,0-2.322-2.773-5.4-7.9h-2.398v4.719c0,2.366-.109,2.233,2.194,2.513v.668h-6.857v-.668c2.29-.28,2.194-.147,2.194-2.513v-11.475c0-2.36.096-2.245-2.194-2.519v-.661h0Z"/>
    <path class="cls-2" d="M236.453,98.858c-.21-1.781-1.17-3.212-3.212-3.212-1.476,0-2.805.763-2.805,2.646,0,1.788,1.781,2.849,4.331,4.764,2.698,2.017,3.569,3.315,3.569,5.433,0,3.027-3.104,4.707-6.164,4.707-1.635,0-3.034-.306-4.357-.815-.108-.044-.178-.152-.178-.356v-3.67h.668c.273,2.83,2.131,3.956,4.103,3.956,1.799,0,3.275-1.387,3.275-3.244,0-1.647-.89-2.996-4.707-5.527-1.38-.923-3.091-1.914-3.091-4.682,0-2.296,2.551-4.109,5.483-4.109,1.101,0,2.551.133,3.568.49.16.044.179.152.179.273v3.346h-.662,0Z"/>
    <path class="cls-2" d="M248.299,109.711c0,2.366-.102,2.239,2.188,2.519v.661h-6.857v-.661c2.29-.28,2.194-.153,2.194-2.519v-11.476c0-2.359.096-2.238-2.194-2.511v-.668h6.857v.668c-2.29.273-2.188.152-2.188,2.511v11.476Z"/>
    <path class="cls-2" d="M263.522,109.711c0,2.366-.108,2.239,2.182,2.519v.661h-6.851v-.661c2.29-.28,2.194-.153,2.194-2.519v-13.835h-2.296c-2.22,0-2.722,1.393-3.568,3.078h-.643l.693-3.898h14.096l.687,3.898h-.649c-.826-1.685-1.342-3.078-3.562-3.078h-2.283v13.835h0Z"/>
    <path class="cls-2" d="M277.395,112.227c2.303-.28,2.194-.146,2.194-2.52v-3.923l-3.918-7.767c-.839-1.66-1.552-2.297-2.735-2.297v-.661h6.507v.661c-1.934,0-1.768.967-1.126,2.297l3.092,6.393,3.511-6.393c.865-1.559.051-2.297-1.457-2.297v-.661h5.254v.661c-.712,0-1.405.331-2.086,1.546l-4.262,7.729c-.254.508-.292,1.227-.292,1.857v2.855c0,2.374-.115,2.24,2.181,2.52v.661h-6.863v-.661h0Z"/>
    <path class="cls-2" d="M313.298,100.348c0-3.442-2.08-3.569-2.609-3.569-3.562,0-5.909,6.411-5.909,10.699,0,1.717.293,4.815,2.735,4.815,3.766,0,5.783-6.195,5.783-11.945M301.74,106.791c0-4.332,3.733-10.807,9.242-10.807,4.396,0,5.356,2.97,5.356,5.948,0,3.631-2.908,11.353-9.211,11.353-4.23,0-5.387-3.396-5.387-6.494"/>
    <path class="cls-2" d="M331.705,97.076l-.795.693h-4.325c-1.616,7.869-4.256,18.332-6.145,23.351h-1.482l4.72-23.351h-3.136l.299-1.386h3.104c1.742-7.036,7.563-7.761,8.944-7.761.769,0,2.346.128,2.849.592l-.407,2.181-.827.402c-.458-.891-1.514-1.915-2.895-1.915-1.997,0-3.472,1.348-4.267,4.917l-.363,1.584h4.853l-.127.693Z"/>
    <path class="cls-2" d="M351.54,108.767c0,3.066-.134,2.9,2.843,3.27v.852h-8.88v-.852c2.977-.37,2.837-.204,2.837-3.27v-14.858c0-3.073.14-2.908-2.837-3.27v-.852h8.644c5.484,0,8.194,2.168,8.194,6.131,0,4.758-4.294,7.334-9.345,7.029v-.649c4.122.064,6.037-2.417,6.037-6.049,0-3.696-1.781-5.413-5.477-5.413h-2.016v17.931Z"/>
    <path class="cls-2" d="M366.894,112.227c2.284-.28,2.188-.146,2.188-2.52v-11.467c0-2.361.096-2.246-2.188-2.52v-.661h11.386v4.103h-.655c-.26-1.896-.77-3.283-2.608-3.283h-3.46v7.278h2.144c1.596,0,2.29-.637,2.334-2.214h.668v5.426h-.668c-.044-1.496-.636-2.386-2.334-2.386h-2.144v5.75c0,2.17.985,2.348,3.288,2.348,3.683,0,3.505-1.043,4.689-3.773h.661l-.77,4.58h-12.531v-.661Z"/>
    <path class="cls-2" d="M400.001,112.891c-4.046-4.789-8.257-9.808-12.41-14.706v11.271c0,.535.107.961.152,1.369.134.921.992,1.284,2.678,1.405v.661h-6.24v-.661c1.228-.121,2.061-.484,2.182-1.405.057-.408.159-.834.159-1.369v-12.003c-.712-.921-1.501-1.729-2.952-1.729v-.668h4.638c3.79,4.617,7.747,9.306,11.538,13.911h.051v-10.464c0-.547-.096-.979-.152-1.38-.128-.917-.993-1.272-2.685-1.399v-.668h6.253v.668c-1.202.127-2.067.482-2.201,1.399-.044.401-.147.833-.147,1.38v14.388s-.864,0-.864,0Z"/>
    <path class="cls-2" d="M423.254,112.891c-4.052-4.789-8.25-9.808-12.404-14.706v11.271c0,.535.095.961.146,1.369.134.921.999,1.284,2.678,1.405v.661h-6.239v-.661c1.22-.121,2.06-.484,2.194-1.405.051-.408.152-.834.152-1.369v-12.003c-.712-.921-1.506-1.729-2.958-1.729v-.668h4.631c3.804,4.617,7.748,9.306,11.545,13.911h.045v-10.464c0-.547-.096-.979-.14-1.38-.14-.917-.999-1.272-2.684-1.399v-.668h6.246v.668c-1.195.127-2.067.482-2.189,1.399-.056.401-.165.833-.165,1.38v14.388h-.858Z"/>
    <path class="cls-2" d="M439.842,98.858c-.197-1.781-1.17-3.212-3.212-3.212-1.475,0-2.799.763-2.799,2.646,0,1.788,1.787,2.849,4.325,4.764,2.704,2.017,3.569,3.315,3.569,5.433,0,3.027-3.098,4.707-6.163,4.707-1.629,0-3.034-.306-4.358-.815-.095-.044-.172-.152-.172-.356v-3.67h.656c.28,2.83,2.143,3.956,4.109,3.956,1.794,0,3.282-1.387,3.282-3.244,0-1.647-.884-2.996-4.714-5.527-1.374-.923-3.085-1.914-3.085-4.682,0-2.296,2.551-4.109,5.49-4.109,1.088,0,2.545.133,3.555.49.154.044.179.152.179.273v3.346h-.662Z"/>
    <path class="cls-2" d="M450.114,112.227c2.296-.28,2.188-.146,2.188-2.52v-3.923l-3.918-7.767c-.84-1.66-1.559-2.297-2.723-2.297v-.661h6.482v.661c-1.927,0-1.743.967-1.113,2.297l3.085,6.393,3.511-6.393c.872-1.559.057-2.297-1.444-2.297v-.661h5.242v.661c-.706,0-1.407.331-2.087,1.546l-4.255,7.729c-.248.508-.306,1.227-.306,1.857v2.855c0,2.374-.101,2.24,2.194,2.52v.661h-6.856v-.661h0Z"/>
    <path class="cls-2" d="M465.821,112.227c2.29-.28,2.194-.146,2.194-2.52v-11.467c0-2.361.096-2.246-2.194-2.52v-.661h6.856v.661c-2.302.274-2.194.159-2.194,2.52v11.882c0,1.781.992,1.959,3.263,1.959,3.689,0,3.544-1.043,4.708-3.773h.636l-.757,4.58h-12.512s0-.661,0-.661Z"/>
    <path class="cls-2" d="M486.531,95.722c-1.399,0-2.418.401-1.584,2.85.998,3.008,2.48,7.384,3.81,11.265,1.622-3.906,3.174-7.824,4.752-11.717.642-1.609-.02-2.398-1.756-2.398v-.661h5.502v.661c-.738,0-1.578.248-2.112,1.533-2.143,5.223-4.3,10.413-6.45,15.635h-1.291c-1.553-4.401-3.289-9.318-4.847-13.644-.948-2.735-1.73-3.524-2.952-3.524v-.661h6.928v.661Z"/>
    <path class="cls-2" d="M508.09,106.016l-2.716-8.281h-.045l-3.034,8.281h5.795ZM501.92,106.983l-1.184,3.41c-.33.992.16,1.832,1.28,1.832v.668h-4.644v-.668c.694,0,1.438-.432,1.845-1.266,1.094-2.246,4.07-10.572,6.188-16.207h1.425c1.731,5.127,4.332,12.969,5.197,15.24.56,1.419.973,2.233,2.068,2.233v.668h-5.935v-.668c1.603,0,1.755-.84,1.342-1.947l-1.094-3.295h-6.488,0Z"/>
    <path class="cls-2" d="M533.296,112.891c-4.065-4.789-8.257-9.808-12.417-14.706v11.271c0,.535.096.961.152,1.369.128.921.999,1.284,2.679,1.405v.661h-6.247v-.661c1.228-.121,2.067-.484,2.188-1.405.058-.408.147-.834.147-1.369v-12.003c-.7-.921-1.495-1.729-2.945-1.729v-.668h4.643c3.791,4.617,7.735,9.306,11.538,13.911h.045v-10.464c0-.547-.089-.979-.146-1.38-.127-.917-.998-1.272-2.678-1.399v-.668h6.246v.668c-1.195.127-2.06.482-2.194,1.399-.045.401-.153.833-.153,1.38v14.388s-.858,0-.858,0Z"/>
    <path class="cls-2" d="M545.34,109.711c0,2.366-.102,2.239,2.194,2.519v.661h-6.856v-.661c2.296-.28,2.187-.153,2.187-2.519v-11.476c0-2.359.109-2.238-2.187-2.511v-.668h6.856v.668c-2.296.273-2.194.152-2.194,2.511v11.476Z"/>
    <path class="cls-2" d="M562.154,106.016l-2.697-8.281h-.044l-3.041,8.281h5.782ZM555.997,106.983l-1.183,3.41c-.325.992.159,1.832,1.285,1.832v.668h-4.644v-.668c.693,0,1.425-.432,1.839-1.266,1.088-2.246,4.077-10.572,6.195-16.207h1.425c1.73,5.127,4.332,12.969,5.197,15.24.56,1.419.96,2.233,2.061,2.233v.668h-5.942v-.668c1.61,0,1.763-.84,1.349-1.947l-1.094-3.295s-6.488,0-6.488,0Z"/>
  </g>
</svg>