<?xml version="1.0" encoding="UTF-8"?>
<svg xmlns="http://www.w3.org/2000/svg" viewBox="0 0 387.957 80.047">
  <defs>
    <style>
      .cls-1 {
        fill: #900;
      }

      .cls-2 {
        fill: #fff;
      }

      .cls-3 {
        fill: #011f5b;
      }
    </style>
  </defs>
  <g id="upenn">
    <g>
      <path class="cls-3" d="M77.638,68.075c0,3.157.855,5.566,4.211,5.566,3.091,0,4.715-2.071,4.715-5.674v-6.273c0-.465-.087-.851-.134-1.211-.113-.811-.877-1.128-1.941-1.237v-.586h5.323v.586c-1.081.109-1.828.426-1.94,1.237-.044.36-.126.747-.126,1.211v6.355c0,4.849-3.096,6.651-6.004,6.651-4.801,0-6.286-2.431-6.286-6.512v-6.716c0-2.097.091-1.984-1.94-2.227v-.586h6.065v.586c-2.032.243-1.94.13-1.94,2.227v6.603Z"/>
      <path class="cls-3" d="M102.566,74.43c-2.765-3.268-5.627-6.694-8.47-10.037v7.692c0,.365.074.656.109.934.087.629.677.876,1.828.959v.451h-4.259v-.451c.833-.083,1.402-.33,1.493-.959.03-.278.104-.569.104-.934v-8.192c-.49-.629-1.024-1.18-2.018-1.18v-.456h3.165c2.591,3.151,5.283,6.351,7.879,9.494h.035v-7.142c0-.373-.07-.668-.104-.942-.091-.626-.682-.868-1.828-.955v-.456h4.263v.456c-.824.087-1.415.329-1.497.955-.035.274-.104.569-.104.942v9.82h-.594Z"/>
      <path class="cls-3" d="M111.153,72.26c0,1.615-.074,1.528,1.493,1.719v.451h-4.676v-.451c1.563-.191,1.494-.104,1.494-1.719v-7.832c0-1.61.069-1.527-1.494-1.714v-.456h4.676v.456c-1.567.186-1.493.104-1.493,1.714v7.832Z"/>
      <path class="cls-3" d="M120.226,62.713c-.955,0-1.65.274-1.081,1.945.682,2.053,1.693,5.04,2.592,7.688,1.116-2.666,2.179-5.34,3.256-7.997.435-1.098-.021-1.637-1.203-1.637v-.451h3.756v.451c-.504,0-1.077.169-1.441,1.046-1.463,3.565-2.935,7.107-4.398,10.671h-.89c-1.059-3.004-2.24-6.36-3.303-9.312-.638-1.867-1.181-2.405-2.015-2.405v-.451h4.728v.451Z"/>
      <path class="cls-3" d="M130.225,73.977c1.567-.191,1.497-.1,1.497-1.72v-7.826c0-1.611.07-1.533-1.497-1.72v-.451h7.776v2.8h-.452c-.178-1.294-.526-2.241-1.776-2.241h-2.366v4.967h1.463c1.094,0,1.563-.435,1.598-1.511h.452v3.703h-.452c-.035-1.021-.434-1.628-1.598-1.628h-1.463v3.924c0,1.481.681,1.602,2.244,1.602,2.527,0,2.401-.712,3.2-2.575h.452l-.517,3.126h-8.561v-.451Z"/>
      <path class="cls-3" d="M145.475,68.484h1.441c1.515,0,2.21-1.142,2.21-3.109,0-1.901-1.046-2.557-2.31-2.557h-1.341v5.665ZM142.293,62.259h5.057c1.754,0,3.517.924,3.517,2.965,0,1.784-1.094,3.017-2.436,3.538l1.702,2.591c.868,1.272,1.841,2.488,2.457,2.853v.226h-1.793c-1.024,0-1.585-1.893-3.686-5.392h-1.637v3.221c0,1.615-.074,1.524,1.497,1.715v.456h-4.68v-.456c1.563-.191,1.497-.1,1.497-1.715v-7.832c0-1.611.066-1.532-1.497-1.719v-.451Z"/>
      <path class="cls-3" d="M161.379,64.853c-.143-1.216-.799-2.192-2.192-2.192-1.007,0-1.914.521-1.914,1.806,0,1.22,1.216,1.944,2.956,3.251,1.841,1.377,2.436,2.262,2.436,3.708,0,2.066-2.118,3.213-4.207,3.213-1.116,0-2.071-.209-2.974-.556-.074-.03-.121-.104-.121-.243v-2.505h.456c.186,1.931,1.454,2.7,2.8,2.7,1.228,0,2.235-.947,2.235-2.214,0-1.124-.607-2.045-3.213-3.772-.942-.63-2.11-1.306-2.11-3.195,0-1.567,1.741-2.804,3.742-2.804.751,0,1.741.091,2.435.334.109.03.122.104.122.186v2.284h-.452Z"/>
      <path class="cls-3" d="M169.464,72.26c0,1.615-.07,1.528,1.493,1.719v.451h-4.68v-.451c1.563-.191,1.497-.104,1.497-1.719v-7.832c0-1.61.066-1.527-1.497-1.714v-.456h4.68v.456c-1.563.186-1.493.104-1.493,1.714v7.832Z"/>
      <path class="cls-3" d="M179.853,72.26c0,1.615-.074,1.528,1.489,1.719v.451h-4.676v-.451c1.563-.191,1.497-.104,1.497-1.719v-9.442h-1.567c-1.515,0-1.858.951-2.435,2.101h-.439l.473-2.66h9.62l.469,2.66h-.443c-.564-1.15-.916-2.101-2.431-2.101h-1.558v9.442Z"/>
      <path class="cls-3" d="M189.322,73.977c1.572-.191,1.497-.1,1.497-1.72v-2.677l-2.674-5.301c-.573-1.133-1.059-1.568-1.867-1.568v-.451h4.441v.451c-1.32,0-1.207.66-.768,1.568l2.11,4.363,2.396-4.363c.59-1.064.035-1.568-.994-1.568v-.451h3.586v.451c-.486,0-.959.226-1.424,1.055l-2.909,5.275c-.173.347-.199.837-.199,1.267v1.949c0,1.62-.078,1.529,1.489,1.72v.451h-4.684v-.451Z"/>
      <path class="cls-3" d="M213.825,65.87c0-2.349-1.42-2.436-1.781-2.436-2.431,0-4.033,4.376-4.033,7.302,0,1.172.2,3.286,1.867,3.286,2.57,0,3.947-4.228,3.947-8.152M205.937,70.267c0-2.957,2.548-7.376,6.308-7.376,3,0,3.655,2.027,3.655,4.06,0,2.478-1.985,7.748-6.286,7.748-2.887,0-3.677-2.318-3.677-4.432"/>
      <path class="cls-3" d="M226.388,63.637l-.543.473h-2.952c-1.103,5.371-2.905,12.512-4.194,15.937h-1.011l3.221-15.937h-2.14l.204-.946h2.118c1.189-4.802,5.162-5.297,6.104-5.297.525,0,1.601.087,1.944.404l-.278,1.489-.564.274c-.313-.608-1.033-1.307-1.976-1.307-1.363,0-2.37.92-2.912,3.356l-.248,1.081h3.312l-.087.473Z"/>
      <path class="cls-3" d="M239.925,71.616c0,2.093-.091,1.979,1.94,2.232v.581h-6.061v-.581c2.032-.253,1.936-.139,1.936-2.232v-10.141c0-2.097.096-1.985-1.936-2.232v-.581h5.9c3.743,0,5.592,1.48,5.592,4.184,0,3.247-2.931,5.005-6.378,4.797v-.443c2.813.044,4.12-1.65,4.12-4.128,0-2.523-1.216-3.694-3.738-3.694h-1.376v12.238Z"/>
      <path class="cls-3" d="M250.405,73.977c1.559-.191,1.493-.1,1.493-1.72v-7.826c0-1.611.066-1.533-1.493-1.72v-.451h7.771v2.8h-.447c-.177-1.294-.526-2.241-1.78-2.241h-2.361v4.967h1.463c1.089,0,1.563-.435,1.593-1.511h.456v3.703h-.456c-.03-1.021-.434-1.628-1.593-1.628h-1.463v3.924c0,1.481.672,1.602,2.244,1.602,2.514,0,2.392-.712,3.2-2.575h.451l-.526,3.126h-8.552v-.451Z"/>
      <path class="cls-3" d="M273,74.43c-2.761-3.268-5.635-6.694-8.47-10.037v7.692c0,.365.073.656.104.934.091.629.677.876,1.828.959v.451h-4.259v-.451c.838-.083,1.407-.33,1.489-.959.039-.278.109-.569.109-.934v-8.192c-.486-.629-1.024-1.18-2.015-1.18v-.456h3.165c2.587,3.151,5.287,6.351,7.875,9.494h.035v-7.142c0-.373-.066-.668-.104-.942-.087-.626-.678-.868-1.833-.955v-.456h4.268v.456c-.82.087-1.411.329-1.502.955-.03.274-.1.569-.1.942v9.82h-.59Z"/>
      <path class="cls-3" d="M288.871,74.43c-2.765-3.268-5.631-6.694-8.466-10.037v7.692c0,.365.065.656.1.934.091.629.682.876,1.828.959v.451h-4.258v-.451c.833-.083,1.406-.33,1.497-.959.035-.278.104-.569.104-.934v-8.192c-.486-.629-1.028-1.18-2.019-1.18v-.456h3.161c2.596,3.151,5.288,6.351,7.879,9.494h.031v-7.142c0-.373-.066-.668-.096-.942-.096-.626-.682-.868-1.832-.955v-.456h4.263v.456c-.816.087-1.411.329-1.494.955-.038.274-.113.569-.113.942v9.82h-.586Z"/>
      <path class="cls-3" d="M300.192,64.853c-.134-1.216-.799-2.192-2.192-2.192-1.007,0-1.91.521-1.91,1.806,0,1.22,1.22,1.944,2.952,3.251,1.845,1.377,2.436,2.262,2.436,3.708,0,2.066-2.114,3.213-4.206,3.213-1.112,0-2.071-.209-2.974-.556-.065-.03-.117-.104-.117-.243v-2.505h.448c.191,1.931,1.463,2.7,2.804,2.7,1.224,0,2.24-.947,2.24-2.214,0-1.124-.603-2.045-3.217-3.772-.938-.63-2.105-1.306-2.105-3.195,0-1.567,1.741-2.804,3.747-2.804.743,0,1.737.091,2.426.334.105.03.122.104.122.186v2.284h-.452Z"/>
      <path class="cls-3" d="M307.202,73.977c1.567-.191,1.493-.1,1.493-1.72v-2.677l-2.674-5.301c-.573-1.133-1.064-1.568-1.858-1.568v-.451h4.424v.451c-1.315,0-1.19.66-.76,1.568l2.106,4.363,2.396-4.363c.595-1.064.039-1.568-.986-1.568v-.451h3.578v.451c-.482,0-.96.226-1.424,1.055l-2.904,5.275c-.169.347-.209.837-.209,1.267v1.949c0,1.62-.069,1.529,1.497,1.72v.451h-4.679v-.451Z"/>
      <path class="cls-3" d="M317.922,73.977c1.563-.191,1.497-.1,1.497-1.72v-7.826c0-1.611.066-1.533-1.497-1.72v-.451h4.679v.451c-1.571.187-1.497.109-1.497,1.72v8.109c0,1.216.677,1.337,2.227,1.337,2.518,0,2.419-.712,3.213-2.575h.434l-.517,3.126h-8.539v-.451Z"/>
      <path class="cls-3" d="M332.057,62.713c-.955,0-1.65.274-1.081,1.945.681,2.053,1.693,5.04,2.6,7.688,1.107-2.666,2.166-5.34,3.243-7.997.438-1.098-.014-1.637-1.198-1.637v-.451h3.755v.451c-.504,0-1.077.169-1.441,1.046-1.463,3.565-2.935,7.107-4.402,10.671h-.881c-1.06-3.004-2.245-6.36-3.308-9.312-.647-1.867-1.181-2.405-2.015-2.405v-.451h4.728v.451Z"/>
      <path class="cls-3" d="M346.771,69.739l-1.854-5.652h-.031l-2.071,5.652h3.955ZM342.56,70.399l-.808,2.327c-.225.677.109,1.25.874,1.25v.456h-3.17v-.456c.474,0,.981-.295,1.259-.864.747-1.533,2.778-7.215,4.223-11.061h.973c1.181,3.499,2.957,8.851,3.547,10.401.382.968.664,1.524,1.411,1.524v.456h-4.051v-.456c1.094,0,1.198-.573.916-1.329l-.747-2.249h-4.428Z"/>
      <path class="cls-3" d="M363.974,74.43c-2.774-3.268-5.635-6.694-8.475-10.037v7.692c0,.365.066.656.104.934.087.629.682.876,1.828.959v.451h-4.264v-.451c.838-.083,1.411-.33,1.493-.959.04-.278.1-.569.1-.934v-8.192c-.478-.629-1.02-1.18-2.01-1.18v-.456h3.169c2.587,3.151,5.279,6.351,7.875,9.494h.031v-7.142c0-.373-.061-.668-.1-.942-.087-.626-.681-.868-1.828-.955v-.456h4.263v.456c-.816.087-1.406.329-1.497.955-.031.274-.104.569-.104.942v9.82h-.586Z"/>
      <path class="cls-3" d="M372.194,72.26c0,1.615-.07,1.528,1.497,1.719v.451h-4.679v-.451c1.567-.191,1.493-.104,1.493-1.719v-7.832c0-1.61.074-1.527-1.493-1.714v-.456h4.679v.456c-1.567.186-1.497.104-1.497,1.714v7.832Z"/>
      <path class="cls-3" d="M383.669,69.739l-1.841-5.652h-.03l-2.075,5.652h3.946ZM379.467,70.399l-.807,2.327c-.222.677.109,1.25.877,1.25v.456h-3.17v-.456c.473,0,.973-.295,1.255-.864.743-1.533,2.783-7.215,4.228-11.061h.973c1.181,3.499,2.957,8.851,3.547,10.401.382.968.655,1.524,1.407,1.524v.456h-4.055v-.456c1.099,0,1.203-.573.921-1.329l-.747-2.249h-4.428Z"/>
    </g>
  </g>
  <g id="divider">
    <rect class="cls-3" x="73.545" y="49.604" width="314.412" height="1.092"/>
  </g>
  <g id="site-name">
    <g>
      <path class="cls-3" d="M74.008,1.211h14.573c4.767,0,8.54,1.055,11.321,3.166,2.78,2.111,4.171,4.835,4.171,8.171,0,3.314-1.215,5.862-3.643,7.644-2.429,1.782-5.914,2.673-10.453,2.673-1.748,0-3.791-.136-6.129-.409v11.189c0,2.411.323,4.072.97,4.981.647.91,1.833,1.365,3.558,1.365v1.157h-14.368v-1.157c1.725,0,2.911-.477,3.558-1.431.647-.954.97-2.545.97-4.772V8.741c0-2.385-.324-4.044-.97-4.975-.647-.931-1.833-1.398-3.558-1.398v-1.157ZM88.785,2.743h-4.937v17.909c1.339.454,2.984.681,4.937.681,2.996,0,5.362-.771,7.099-2.315,1.737-1.543,2.605-3.654,2.605-6.333,0-2.882-.863-5.26-2.588-7.133-1.725-1.873-4.098-2.809-7.116-2.809Z"/>
      <path class="cls-3" d="M128.393,34.817v1.805c-1.498,1.907-3.025,3.268-4.58,4.086-1.555.817-3.422,1.226-5.601,1.226-3.859,0-7.043-1.209-9.551-3.627-2.508-2.417-3.762-5.487-3.762-9.21,0-3.746,1.197-6.9,3.592-9.466,2.395-2.565,5.329-3.847,8.802-3.847,2.86,0,5.357.965,7.491,2.894,2.133,1.93,3.2,4.234,3.2,6.912v.511h-18.148v.341c0,2.724.414,5.09,1.243,7.099.828,2.009,2.037,3.581,3.626,4.716,1.589,1.135,3.246,1.702,4.971,1.702,1.612,0,2.99-.334,4.137-1.004,1.146-.669,2.673-2.048,4.58-4.137ZM109.837,24.909h13.449v-.477c0-2.202-.63-3.95-1.89-5.243s-2.832-1.941-4.716-1.941c-1.998,0-3.604.681-4.818,2.043-1.215,1.362-1.89,3.235-2.026,5.618Z"/>
      <path class="cls-3" d="M139.196,15.784v4.937c2.882-3.291,5.856-4.937,8.921-4.937,2.383,0,4.369.813,5.959,2.438,1.589,1.625,2.383,3.768,2.383,6.427v11.15c0,1.705.284,2.83.851,3.375.567.546,1.68.818,3.337.818v1.157h-13.177v-1.157c1.635,0,2.752-.21,3.354-.631.601-.42.902-1.233.902-2.438v-12.924c0-1.728-.517-3.103-1.549-4.126-1.033-1.023-2.355-1.535-3.967-1.535-2.315,0-4.654,1.612-7.014,4.835v12.078c0,2.047.264,3.349.793,3.907.529.557,1.638.836,3.327.836v1.157h-13.007v-1.157c1.884,0,3.041-.302,3.473-.905.431-.603.647-1.884.647-3.842v-13.934c0-1.48-.261-2.453-.783-2.92-.522-.466-1.634-.7-3.336-.7v-1.157l7.695-.749h1.192Z"/>
      <path class="cls-3" d="M170.088,15.784v4.937c2.882-3.291,5.856-4.937,8.921-4.937,2.383,0,4.369.813,5.959,2.438,1.589,1.625,2.383,3.768,2.383,6.427v11.15c0,1.705.284,2.83.851,3.375.567.546,1.68.818,3.337.818v1.157h-13.177v-1.157c1.635,0,2.752-.21,3.354-.631.601-.42.902-1.233.902-2.438v-12.924c0-1.728-.517-3.103-1.549-4.126-1.033-1.023-2.355-1.535-3.967-1.535-2.315,0-4.654,1.612-7.014,4.835v12.078c0,2.047.264,3.349.793,3.907.529.557,1.638.836,3.327.836v1.157h-13.007v-1.157c1.884,0,3.041-.302,3.473-.905.431-.603.647-1.884.647-3.842v-13.934c0-1.48-.261-2.453-.783-2.92-.522-.466-1.634-.7-3.336-.7v-1.157l7.695-.749h1.192Z"/>
      <path class="cls-3" d="M230.737,1.61v11.636h-1.192c-.953-3.612-2.48-6.272-4.579-7.979-2.1-1.706-4.898-2.56-8.393-2.56-4.54,0-8.137,1.596-10.793,4.788-2.656,3.191-3.984,7.447-3.984,12.766,0,5.83,1.402,10.522,4.205,14.08,2.804,3.557,6.475,5.336,11.015,5.336,6.288,0,10.93-2.859,13.926-8.578l1.055.964c-1.34,3.103-3.502,5.558-6.486,7.364-2.985,1.806-6.384,2.71-10.197,2.71-3.609,0-6.952-.831-10.027-2.494-3.076-1.662-5.447-3.951-7.116-6.865-1.668-2.914-2.502-6.267-2.502-10.057,0-6.206,1.952-11.342,5.856-15.41,3.904-4.067,8.83-6.101,14.777-6.101,1.997,0,4.528.344,7.592,1.031,1.725.399,2.916.598,3.575.598,1.021,0,1.737-.41,2.145-1.23h1.123Z"/>
      <path class="cls-3" d="M262.752,28.892c0,3.723-1.289,6.827-3.865,9.312-2.577,2.486-5.794,3.729-9.653,3.729s-7.077-1.243-9.653-3.729c-2.577-2.486-3.865-5.589-3.865-9.312,0-3.768,1.282-6.895,3.847-9.38s5.788-3.728,9.67-3.728,7.104,1.243,9.669,3.728c2.565,2.486,3.848,5.613,3.848,9.38ZM257.611,28.909c0-3.523-.749-6.364-2.248-8.524-1.498-2.16-3.541-3.239-6.128-3.239s-4.631,1.057-6.129,3.171c-1.498,2.114-2.247,4.978-2.247,8.593,0,3.547.743,6.377,2.23,8.491s3.535,3.171,6.146,3.171,4.659-1.068,6.146-3.205c1.486-2.137,2.23-4.956,2.23-8.456Z"/>
      <path class="cls-3" d="M278.896,40.096h.652v1.054h-13.79v-1.054h1.26c1.272,0,2.134-.3,2.588-.9.454-.599.681-1.716.681-3.351V6.185c0-1.158-.25-1.96-.749-2.404s-1.362-.667-2.588-.667h-1.6v-1.054l8.513-.775h1.157v35.646c0,1.221.274,2.053.823,2.497.549.445,1.567.667,3.054.667Z"/>
      <path class="cls-3" d="M294.601,40.096h.652v1.054h-13.79v-1.054h1.26c1.272,0,2.134-.3,2.588-.9.454-.599.681-1.716.681-3.351V6.185c0-1.158-.25-1.96-.749-2.404s-1.362-.667-2.588-.667h-1.6v-1.054l8.513-.775h1.157v35.646c0,1.221.274,2.053.823,2.497.549.445,1.567.667,3.054.667Z"/>
      <path class="cls-3" d="M321.582,34.817v1.805c-1.498,1.907-3.025,3.268-4.579,4.086-1.556.817-3.422,1.226-5.601,1.226-3.859,0-7.042-1.209-9.55-3.627-2.509-2.417-3.763-5.487-3.763-9.21,0-3.746,1.197-6.9,3.592-9.466,2.395-2.565,5.329-3.847,8.802-3.847,2.86,0,5.357.965,7.49,2.894,2.134,1.93,3.2,4.234,3.2,6.912v.511h-18.148v.341c0,2.724.414,5.09,1.243,7.099s2.037,3.581,3.627,4.716c1.588,1.135,3.246,1.702,4.971,1.702,1.612,0,2.99-.334,4.137-1.004,1.145-.669,2.672-2.048,4.579-4.137ZM303.025,24.909h13.449v-.477c0-2.202-.63-3.95-1.89-5.243s-2.832-1.941-4.716-1.941c-1.998,0-3.604.681-4.817,2.043-1.215,1.362-1.89,3.235-2.026,5.618Z"/>
      <path class="cls-3" d="M347.842,15.784v8.716h-1.192c-.523-2.27-1.521-4.063-2.996-5.38-1.476-1.316-3.234-1.975-5.277-1.975-2.452,0-4.449.953-5.993,2.86-1.544,1.907-2.315,4.381-2.315,7.422,0,3.36.913,6.265,2.741,8.717,1.827,2.451,4.001,3.677,6.52,3.677,1.68,0,3.342-.454,4.988-1.362,1.646-.908,3.058-2.168,4.239-3.78v1.805c-2.678,3.632-6.31,5.448-10.896,5.448-3.655,0-6.634-1.158-8.937-3.473-2.304-2.315-3.456-5.323-3.456-9.023,0-3.791,1.243-7.014,3.728-9.67,2.486-2.656,5.487-3.984,9.006-3.984,1.566,0,3.314.318,5.243.953.839.272,1.418.409,1.737.409.703,0,1.26-.454,1.668-1.362h1.192Z"/>
      <path class="cls-3" d="M357.93,8.088h1.192v8.308h8.581v1.805h-8.581v15.901c0,1.657.386,2.934,1.157,3.831.771.897,1.873,1.345,3.303,1.345,1.68,0,3.212-.794,4.597-2.383l.783.919c-2.157,2.747-4.642,4.12-7.456,4.12-2.111,0-3.825-.67-5.141-2.009-1.317-1.339-1.975-3.064-1.975-5.175v-16.547h-4.665v-1.192c3.405-1.702,6.14-4.676,8.206-8.921Z"/>
      <path class="cls-3" d="M386.2,15.784v7.593h-1.396c-.227-1.907-.908-3.422-2.043-4.546-1.135-1.123-2.508-1.685-4.119-1.685-1.226,0-2.214.306-2.962.919-.749.613-1.123,1.43-1.123,2.452,0,.999.345,1.879,1.038,2.639.692.761,2.196,1.674,4.511,2.741,2.996,1.362,4.977,2.668,5.942,3.916.965,1.249,1.448,2.747,1.448,4.495,0,2.066-.772,3.853-2.316,5.362s-3.37,2.265-5.481,2.265c-1.089,0-2.532-.398-4.325-1.192-.976-.431-1.623-.647-1.94-.647-.432,0-.795.159-1.09.477-.295.318-.465.715-.51,1.192h-1.192v-8.41h1.192c.431,2.212,1.384,3.968,2.86,5.268s3.166,1.95,5.073,1.95c1.226,0,2.252-.409,3.081-1.228.828-.818,1.243-1.83,1.243-3.035,0-1.159-.382-2.165-1.145-3.018-.763-.852-2.415-1.837-4.955-2.953-2.858-1.252-4.741-2.424-5.648-3.514-.906-1.09-1.36-2.407-1.36-3.952,0-1.931.743-3.594,2.23-4.991,1.486-1.397,3.251-2.095,5.294-2.095.953,0,1.986.227,3.098.681.795.318,1.442.477,1.941.477.658,0,1.146-.386,1.464-1.157h1.192Z"/>
    </g>
  </g>
  <g id="shield">
    <g id="_Group_" data-name="&amp;lt;Group&amp;gt;">
      <path class="cls-2" d="M66.537,0H0v33.163c-.048,14.441,7.958,24.896,14.676,31.125,7.392,6.856,15.539,10.807,18.26,11.399l.334.069.33-.069c2.72-.592,10.867-4.543,18.259-11.399,6.719-6.229,14.719-16.684,14.677-31.125V0"/>
      <path class="cls-1" d="M62.441,13.884h0c.098.077.197.154.27.261.077.112.112.24.112.386,0,.137-.035.266-.112.377-.073.108-.172.184-.27.262-.15.116-.291.231-.291.424v1.18h-13.952v-1.18c0-.193-.141-.308-.296-.424-.099-.078-.197-.154-.27-.262-.073-.111-.112-.24-.107-.382-.005-.142.034-.27.107-.382.073-.107.171-.184.27-.261.154-.116.296-.232.296-.425v-3.852c0-.193-.141-.305-.296-.425-.099-.072-.197-.154-.27-.257-.073-.111-.112-.244-.107-.386-.005-.137.034-.265.107-.382.073-.103.175-.189.27-.257.154-.12.296-.232.296-.425v-1.214h.176c.815,0,1.532-.021,2.029-.235.202-.081.391-.202.592-.326.425-.274.909-.575,1.635-.575.584,0,1.124.218,1.6.412.339.133.656.262.896.262h.094c.237,0,.554-.129.897-.262.476-.193,1.017-.412,1.596-.412.725,0,1.21.3,1.639.575.197.124.386.245.592.326.498.214,1.209.235,2.025.235h.18v1.214c0,.193.141.305.291.425.094.068.197.154.27.257.077.116.112.244.112.386,0,.137-.035.27-.112.382-.073.103-.172.185-.27.257-.15.12-.291.232-.291.425v3.852c0,.193.141.309.291.425M45.336,15.9c-1.081,1.725-3.161,2.149-3.247,2.167-.412.068-.833.107-1.253.107-2.174,0-4.187-.948-6.224-1.999-.228-.12-.485-.258-.756-.407-1.304-.713-3.119-1.708-4.655-1.708-.45,0-.875.085-1.253.283l-.064.03-.004.072c-.009.202-.048.395-.112.571-.249.652-1.046,1.351-1.437,1.63-.892.64-1.995,1.296-3.367,1.296-.202,0-.39-.026-.562-.082-.248-.086-.459-.236-.609-.433-.077-.094-.142-.21-.189-.326-.042-.094-.064-.188-.081-.304l-.009-.081-.077-.026c-.532-.159-.85-.502-.85-.922,0-.322.236-.601.463-.872.356-.416.661-.781.159-1.257-.043-.038-.099-.081-.15-.119-.073-.056-.146-.103-.206-.172-.437-.468-.18-1.446-.026-2.029l.017-.06c.168-.644.425-1.3.79-2.021.489-.974,1.081-2.072,1.914-2.767.017-.013.034-.018.055-.018.022.005.043.018.056.034.013.027.103.168.236.382l.137.231.086-.257c.236-.691.614-1.132,1.137-1.325.558-.206,1.076.081,1.334.27l.111.082.068-.116c.168-.27.476-.601.987-.622.566-.025,1.026.36,1.249.592l.081.081.09-.073c.253-.21.91-.691,1.57-.601.627.086.867.631.939.858l.043.142.133-.064c.296-.146.867-.339,1.407.004.347.218.386.592.36.867l-.017.162.163-.03c.407-.064,1.153-.111,1.596.339.347.356.369.82.326,1.141l-.017.159.158-.017c.356-.043.833-.009,1.09.39.175.27.107.652.051.858l-.034.12.124.034c.206.052.571.18.678.476.082.219.056.588-.068,1.013l-.034.106.107.043c.18.078.506.254.682.601.176.344.167.768-.021,1.27l-.03.077.064.06c.463.412.931.79,1.39,1.12.927.678,2.376,1.034,3.359.223.373-.304.536-.863.412-1.386-.111-.463-.42-.785-.841-.879-.746-.163-1.334.545-1.815,1.257-.012.021-.039.034-.068.034-.026-.004-.052-.021-.06-.047-.442-1.055-.463-1.927-.069-2.596.343-.571.991-.974,1.785-1.099l.107-.016v-.112c-.013-1.244.283-2.149.888-2.699.369-.334,1.043-.7,2.171-.541.022,0,.043.017.056.034.008.018.013.043.004.064-.828,2.004-.627,2.75-.175,4.393.043.142.081.296.124.451.416,1.557.291,2.887-.378,3.955M18.638,13.884h0c.098.077.197.154.27.261.072.112.111.24.111.386,0,.137-.039.266-.111.377-.073.108-.172.184-.27.262-.15.116-.296.231-.296.424v1.18H4.39v-1.18c0-.193-.142-.308-.292-.424-.098-.078-.197-.154-.27-.262-.077-.111-.111-.24-.111-.382s.034-.27.111-.382c.073-.107.172-.184.27-.261.15-.116.292-.232.292-.425v-3.852c0-.193-.142-.305-.292-.425-.098-.072-.197-.154-.27-.257-.077-.111-.111-.244-.111-.386,0-.137.034-.265.111-.382.073-.103.176-.189.27-.257.15-.12.292-.232.292-.425v-1.214h.176c.819,0,1.531-.021,2.033-.235.202-.081.39-.202.588-.326.429-.274.914-.575,1.639-.575.579,0,1.12.218,1.6.412.339.133.657.262.897.262h.09c.24,0,.558-.129.901-.262.472-.193,1.013-.412,1.596-.412.725,0,1.21.3,1.635.575.201.124.39.245.592.326.498.214,1.214.235,2.029.235h.176v1.214c0,.193.146.305.296.425.094.068.197.154.27.257.072.116.111.244.111.386,0,.137-.039.27-.111.382-.073.103-.172.185-.27.257-.15.12-.296.232-.296.425v3.852c0,.193.146.309.296.425M1.683,1.752s.09,19.272-.004,19.182h63.182V1.752H1.683Z"/>
      <path class="cls-3" d="M23.448,13.055c.218,0,.433.06.639.232.068.051.132.111.188.167.146.137.137.369-.021.493-.155.129-.335.257-.446.33-.258.176-.7.498-1.004.248-.154-.133.15-.339.017-.866-.103-.42.304-.605.627-.605"/>
      <path class="cls-3" d="M23.55,6.838c-.703.661-1.227,1.648-1.669,2.527-.356.7-.609,1.343-.772,1.965l-.018.064c-.119.455-.369,1.412-.038,1.768.047.048.107.091.167.137.06.048.12.086.18.146.687.652.21,1.218-.142,1.635-.201.24-.399.468-.399.687,0,.48.588.657.768.695.086.018.15.095.154.18.014.142.026.245.073.356.039.099.09.184.151.262.124.154.287.27.485.339.141.052.3.078.472.078,1.295,0,2.346-.635,3.209-1.253.511-.365,1.154-1.017,1.339-1.501.046-.133.076-.27.089-.416l-.905-.155c-.008,0-.013-.004-.021-.004-.095-.029-.159-.098-.176-.193-.026-.179.133-.287.455-.506.094-.065.193-.129.283-.202.476-.351.862-.626,1.077-.781-.249-.283-.463-.605-.639-.875-.137-.201-.253-.382-.356-.498-.446-.485-1.235-.768-1.879-.373-.257.163-.485.364-.725.575-.193.171-.394.352-.614.506-.086.06-.206.043-.27-.039-.069-.077-.064-.197.013-.27.03-.029.064-.06.103-.094.291-.278.978-.918.978-1.377,0-1.06-1.012-2.797-1.373-3.38M29.217,13.774c1.575,0,3.364.983,4.767,1.751.27.15.528.287.755.403,2.398,1.24,4.758,2.312,7.298,1.866.017-.004,2.055-.42,3.067-2.042.622-.999.738-2.257.343-3.737-.043-.154-.085-.309-.124-.45-.42-1.536-.661-2.407.086-4.316-.871-.055-1.394.236-1.691.498-.566.515-.832,1.411-.79,2.668,0,.108-.077.197-.18.206-.781.082-1.437.446-1.755.982-.308.524-.326,1.193-.051,2.004.386-.528,1.043-1.239,1.879-1.055.523.116.918.519,1.051,1.081.155.631-.051,1.3-.502,1.669-1.099.901-2.69.519-3.698-.214-1.192-.867-2.376-1.969-3.621-3.368-.214-.244-.429-.493-.64-.738-.785-.905-1.596-1.845-2.561-2.591-1.51-1.166-3.294-1.355-4.53-1.312-.841.034-2.527.266-3.66.952.352.721.661,1.549.661,2.188,0,.116-.022.227-.06.339.819-.48,1.802-.137,2.351.468.125.133.249.326.395.549.214.321.459.691.751.969.043.043.064.103.06.163-.005.06-.035.116-.086.146-.004.004-.523.369-1.257.914-.099.077-.205.15-.3.21-.017.013-.034.026-.051.038l.648.107c.446-.244.931-.347,1.446-.347M40.836,18.301c-2.179,0-4.217-.948-6.281-2.016-.231-.12-.489-.258-.764-.407-1.66-.91-4.157-2.278-5.788-1.42-.008.21-.047.412-.12.601-.257.682-1.081,1.403-1.48,1.691-.91.652-2.03,1.321-3.441,1.321-.214,0-.42-.03-.601-.09-.27-.094-.502-.258-.669-.476-.082-.103-.155-.223-.206-.356-.047-.111-.073-.218-.09-.334-.584-.176-.936-.566-.936-1.047,0-.365.249-.661.494-.948.394-.468.566-.708.167-1.081-.039-.039-.091-.077-.142-.116-.073-.055-.15-.111-.219-.188-.485-.519-.214-1.536-.055-2.145l.017-.061c.171-.648.433-1.317.798-2.042.493-.986,1.094-2.098,1.944-2.806.043-.038.102-.055.158-.047.056.009.108.043.137.086.03.047.369.566.725,1.252,1.476-.884,3.578-.982,3.823-.991,1.295-.051,3.183.155,4.788,1.394,1,.773,1.824,1.725,2.621,2.647.206.24.421.489.635.729,1.227,1.381,2.389,2.467,3.557,3.312.888.648,2.274.995,3.205.231.339-.278.489-.785.373-1.261-.103-.421-.373-.704-.751-.79-.67-.146-1.223.528-1.678,1.201-.043.064-.116.099-.189.09-.073-.004-.133-.056-.163-.124-.459-1.085-.476-2-.056-2.707.356-.601,1.047-1.025,1.871-1.154-.013-1.287.296-2.226.927-2.797.39-.347,1.094-.734,2.274-.575.06.009.116.048.146.099.034.056.038.12.012.176-.815,1.96-.614,2.694-.171,4.307.043.141.081.3.129.459.425,1.587.291,2.952-.395,4.051-1.111,1.772-3.243,2.205-3.333,2.222-.429.073-.854.111-1.274.111"/>
      <path class="cls-3" d="M22.193,16.914c-.188,0-.382-.013-.579-.034-.111-.017-.188-.111-.175-.227.013-.108.111-.184.223-.176.914.111,2.248-.008,3.41-1.21.077-.077.206-.077.283-.004.081.082.081.206.004.287-.871.901-1.961,1.364-3.166,1.364"/>
      <path class="cls-3" d="M38.298,13.902c-.026,0-.051-.004-.073-.017-.098-.043-.141-.15-.098-.249.21-.48.24-.879.086-1.184-.206-.412-.691-.532-.695-.532-.051-.013-.099-.047-.12-.09-.025-.051-.03-.107-.013-.159.069-.184.227-.733.129-1.012-.086-.24-.532-.334-.682-.352-.055-.004-.111-.042-.141-.089-.03-.052-.035-.116-.009-.168.06-.154.189-.592.035-.832-.292-.455-1.073-.232-1.081-.232-.069.018-.142,0-.189-.046-.048-.052-.064-.129-.043-.194.004-.004.223-.708-.214-1.158-.511-.523-1.609-.214-1.622-.21-.064.017-.137,0-.184-.051s-.064-.124-.043-.189c.009-.026.189-.609-.205-.854-.627-.394-1.339.108-1.347.116-.052.038-.125.047-.185.017-.059-.025-.102-.086-.107-.15-.004-.03-.107-.798-.781-.884-.725-.098-1.497.648-1.506.657-.034.039-.09.06-.141.056-.056-.005-.103-.035-.138-.077-.004-.005-.519-.665-1.162-.635-.622.03-.867.661-.867.665-.026.06-.073.103-.137.115-.06.013-.124-.004-.171-.047-.005-.004-.622-.592-1.253-.36-.798.292-1.021,1.265-1.094,1.583l-.004.012c-.022.099-.125.164-.223.138-.103-.022-.163-.125-.142-.227l.005-.009c.086-.369.343-1.489,1.33-1.849.609-.228,1.172.081,1.454.287.159-.266.498-.657,1.09-.682.618-.03,1.115.395,1.338.631.291-.24.974-.73,1.673-.631.609.082.918.566,1.038.944.33-.163.944-.36,1.532.009.407.262.446.7.416.991.429-.073,1.222-.12,1.708.373.394.403.407.922.364,1.244.343-.043.905-.022,1.21.446.193.309.133.708.064.962.257.059.644.21.768.554.12.334.008.823-.068,1.089.214.086.558.279.751.661.206.412.179.918-.078,1.51-.029.069-.098.111-.171.111"/>
      <path class="cls-3" d="M37.362,16.491h-.021c-.103-.013-.176-.107-.164-.21.086-.716-.339-.85-.708-.961-.098-.034-.184-.06-.253-.099-.198-.115-.206-.356-.215-.605-.008-.27-.017-.571-.218-.798-.352-.39-1.043-.137-1.047-.137-.064.025-.133.013-.184-.03-.052-.043-.077-.107-.069-.172.005-.008.111-.768-.326-1.141-.369-.313-1.072-.236-1.308-.18-.06.013-.12-.004-.167-.043-.043-.034-.068-.094-.064-.154.034-.468-.155-.875-.515-1.102-.304-.202-.674-.228-.961-.073-.789.425-1.098.45-1.922-.129-.257-.184-.519-.244-.768-.18-.313.077-.605.36-.82.79-.043.094-.154.133-.249.085-.094-.047-.128-.154-.085-.253.262-.528.639-.88,1.064-.987.356-.094.725-.009,1.072.236.695.493.854.472,1.527.107.412-.219.927-.189,1.347.081.407.27.657.712.687,1.219.343-.043.983-.061,1.407.3.403.343.472.88.472,1.201.313-.06.841-.077,1.188.309.292.33.309.738.318,1.038,0,.103.004.253.029.296.035.017.103.039.172.06.352.107,1.094.339.966,1.368-.009.09-.091.163-.185.163"/>
      <path class="cls-3" d="M18.75,14.535c.004.081-.017.159-.064.227-.047.069-.129.133-.214.197-.176.142-.391.313-.391.635v.858H4.657v-.858c0-.322-.218-.493-.394-.635-.086-.064-.167-.128-.214-.197-.048-.068-.069-.146-.064-.227v-.013c-.005-.085.016-.158.064-.227.047-.069.128-.133.214-.201.176-.138.394-.309.394-.631v-3.857c0-.321-.218-.493-.394-.631-.086-.068-.167-.128-.214-.201-.048-.069-.069-.142-.064-.227v-.013c-.005-.081.016-.159.064-.223.047-.073.128-.137.214-.201.176-.138.394-.313.394-.635v-.892h.026c.352,0,.691-.005,1.013-.034v8.872h4.887c.089.347.407.605.789.605.377,0,.695-.257.79-.605h4.882V6.551c.322.025.661.03,1.008.03h.03v.892c0,.322.215.498.391.635.085.064.167.128.214.201.047.064.068.142.064.223v.013c.004.085-.017.158-.064.227-.047.073-.129.133-.214.201-.176.137-.391.309-.391.631v3.857c0,.322.215.493.391.631.085.068.167.132.214.201s.068.142.064.227v.013ZM6.725,6.323c.228-.098.433-.227.635-.351.429-.274.832-.523,1.467-.523.515,0,1.03.202,1.476.382.317.128.596.24.854.274v7.757c-.018,0-.034.004-.048.004-.373.03-.905.202-1.51.395-.197.064-.399.128-.597.188-.588.176-1.192.176-1.785.18-.386,0-.746.005-1.085.056V6.495c.21-.039.407-.094.592-.172M12.431,5.83c.45-.18.961-.382,1.476-.382.635,0,1.042.249,1.467.523.201.124.407.253.635.351.189.078.386.133.597.172v8.19c-.334-.051-.7-.056-1.086-.056-.587-.004-1.196-.004-1.784-.18-.197-.06-.399-.124-.597-.188-.605-.193-1.137-.365-1.51-.395-.008,0-.017,0-.021-.004v-7.761c.248-.039.519-.146.824-.27M18.716,13.784c-.155-.12-.244-.197-.244-.322v-3.857c0-.124.089-.201.244-.321.099-.078.214-.167.296-.288.089-.132.137-.296.132-.459.005-.158-.043-.317-.132-.45-.082-.12-.197-.21-.296-.291-.155-.12-.244-.193-.244-.322v-1.342h-.305c-.716,0-1.484-.009-1.978-.224-.197-.076-.382-.197-.575-.317-.442-.283-.944-.596-1.708-.596-.605,0-1.158.223-1.643.42-.326.133-.635.253-.849.253h-.094c-.211,0-.523-.119-.85-.253-.485-.197-1.038-.42-1.643-.42-.763,0-1.265.313-1.707.596-.193.119-.377.24-.571.317-.498.215-1.265.224-1.981.224h-.305v1.342c0,.129-.09.202-.244.322-.099.081-.215.171-.296.291-.09.133-.137.292-.133.45-.004.163.043.326.133.459.081.121.197.21.296.288.154.12.244.197.244.321v3.857c0,.125-.09.202-.244.322-.099.081-.215.167-.296.287-.09.138-.137.296-.133.455-.004.163.043.322.133.455.081.124.197.21.296.291.154.12.244.197.244.322v1.291l-.008.017h14.226l-.008-.017v-1.291c0-.125.089-.202.244-.322.099-.081.214-.167.296-.291.089-.133.137-.292.132-.455.005-.158-.043-.317-.132-.455-.082-.12-.197-.206-.296-.287"/>
      <path class="cls-3" d="M62.555,14.535c.004.081-.017.159-.064.227-.047.069-.129.133-.214.197-.176.142-.395.313-.395.635v.858h-13.42v-.858c0-.322-.218-.493-.394-.635-.086-.064-.167-.128-.214-.197-.048-.068-.069-.146-.064-.227v-.013c-.005-.085.016-.158.064-.227.047-.069.128-.133.214-.201.176-.138.394-.309.394-.631v-3.857c0-.321-.218-.493-.394-.631-.086-.068-.167-.128-.214-.201-.048-.069-.069-.142-.064-.227v-.013c-.005-.081.016-.159.064-.223.047-.073.128-.137.214-.201.176-.138.394-.313.394-.635v-.892h.026c.352,0,.691-.005,1.013-.034v8.872h4.887c.089.347.407.605.789.605.373,0,.695-.257.785-.605h4.887V6.551c.322.025.661.03,1.008.03h.026v.892c0,.322.219.498.395.635.085.064.167.128.214.201.047.064.068.142.064.223v.013c.004.085-.017.158-.064.227-.047.073-.129.133-.214.201-.176.137-.395.309-.395.631v3.857c0,.322.219.493.395.631.085.068.167.132.214.201s.068.142.064.227v.013ZM50.529,6.323c.228-.098.433-.227.635-.351.429-.274.832-.523,1.463-.523.519,0,1.03.202,1.48.382.317.128.596.24.854.274v7.757c-.018,0-.034.004-.048.004-.373.03-.905.202-1.51.395-.197.064-.399.128-.601.188-.584.176-1.193.176-1.781.18-.386,0-.746.005-1.085.056V6.495c.21-.039.407-.094.592-.172M56.236,5.83c.45-.18.961-.382,1.476-.382.635,0,1.038.249,1.467.523.201.124.407.253.635.351.189.078.386.133.597.172v8.19c-.334-.051-.7-.056-1.086-.056-.587-.004-1.196-.004-1.784-.18-.197-.06-.399-.124-.597-.188-.605-.193-1.137-.365-1.51-.395-.008,0-.017,0-.021-.004v-7.761c.248-.039.519-.146.824-.27M62.521,13.784c-.159-.12-.244-.197-.244-.322v-3.857c0-.124.085-.201.244-.321.099-.078.214-.167.296-.288.089-.132.137-.296.132-.459.005-.158-.043-.317-.132-.45-.082-.12-.197-.21-.296-.291-.159-.12-.244-.193-.244-.322v-1.342h-.305c-.716,0-1.484-.009-1.978-.224-.197-.076-.382-.197-.575-.317-.442-.283-.944-.596-1.708-.596-.605,0-1.158.223-1.643.42-.326.133-.635.253-.849.253h-.094c-.215,0-.523-.119-.85-.253-.489-.197-1.038-.42-1.648-.42-.759,0-1.261.313-1.703.596-.193.119-.377.24-.571.317-.498.215-1.265.224-1.981.224h-.305v1.342c0,.129-.09.202-.244.322-.099.081-.215.171-.296.291-.09.133-.137.292-.133.45-.004.163.043.326.133.459.081.121.197.21.296.288.154.12.244.197.244.321v3.857c0,.125-.09.202-.244.322-.099.081-.215.167-.296.287-.09.138-.137.296-.133.455-.004.163.043.322.133.455.081.124.197.21.296.291.154.12.244.197.244.322v1.291l-.008.017h14.226l-.008-.017v-1.291c0-.125.085-.202.244-.322.099-.081.214-.167.296-.291.089-.133.137-.292.132-.455.005-.158-.043-.317-.132-.455-.082-.12-.197-.206-.296-.287"/>
      <path class="cls-3" d="M60.839,48.823l-27.569-26.59L5.698,48.823c-2.141-4.504-3.565-9.73-3.544-15.65v-11.798h62.234v11.798c.017,5.921-1.407,11.146-3.548,15.65M52.04,51.595c-2.14,2.14-5.616,2.14-7.757,0-2.141-2.142-2.141-5.612,0-7.753,2.141-2.141,5.616-2.141,7.757,0,2.141,2.141,2.141,5.612,0,7.753M27.787,34.116c0-3.025,2.454-5.479,5.483-5.479s5.478,2.454,5.478,5.479-2.449,5.487-5.478,5.487-5.483-2.458-5.483-5.487M50.397,62.715c-7.401,6.864-15.072,10.322-17.127,10.846-2.055-.523-9.73-3.982-17.131-10.846-.18-.168-.36-.339-.545-.511l17.675-18.761,17.671,18.761c-.18.172-.364.343-.545.511M14.5,51.595c-2.14-2.142-2.14-5.612,0-7.753,2.141-2.141,5.612-2.141,7.753,0,2.141,2.141,2.141,5.612,0,7.753-2.14,2.14-5.612,2.14-7.753,0M64.388,20.486H2.153V2.149h62.234v18.337ZM65.276,1.261H1.265v31.907c-.043,13.982,7.735,24.137,14.27,30.199,7.126,6.607,15.148,10.541,17.666,11.091l.069.008.064-.008c2.523-.549,10.545-4.484,17.667-11.091,6.534-6.062,14.316-16.217,14.274-30.199V1.261Z"/>
    </g>
  </g>
</svg>